<svg width="50" height="51" viewBox="0 0 50 51" fill="none" xmlns="http://www.w3.org/2000/svg">
<ellipse cx="25" cy="25.4499" rx="25" ry="25.0751" fill="#FF8D30"/>
<path d="M24.9741 23.8691C24.9741 24.0587 25.1277 24.2076 25.3155 24.2076C25.7047 24.2076 26.0187 24.5224 26.0187 24.9049C26.0187 25.0911 26.1724 25.2435 26.3601 25.2435C26.5479 25.2435 26.7015 25.0911 26.7015 24.9049C26.7015 24.1467 26.0802 23.5306 25.3155 23.5306C25.1277 23.5306 24.9741 23.6829 24.9741 23.8691ZM30.5318 25.2435C30.723 25.2435 30.8732 25.0911 30.8732 24.9049C30.8732 21.8651 28.3811 19.3939 25.3155 19.3939C25.1277 19.3939 24.9741 19.5463 24.9741 19.7325C24.9741 19.9186 25.1277 20.071 25.3155 20.071C28.0056 20.071 30.1904 22.2408 30.1904 24.9049C30.1904 25.0911 30.344 25.2435 30.5318 25.2435Z" fill="#161C35"/>
<path d="M28.1045 24.9049C28.1045 25.0911 28.2582 25.2435 28.4459 25.2435C28.6337 25.2435 28.7873 25.0911 28.7873 24.9049C28.7873 23.0059 27.2306 21.4623 25.3155 21.4623C25.1277 21.4623 24.9741 21.6146 24.9741 21.8008C24.9741 21.9903 25.1277 22.1393 25.3155 22.1393C26.8551 22.1393 28.1045 23.3816 28.1045 24.9049ZM25.3155 17.3256C25.1277 17.3256 24.9741 17.4779 24.9741 17.6641C24.9741 17.8503 25.1277 18.0026 25.3155 18.0026C29.156 18.0026 32.2796 21.1 32.2796 24.9049C32.2796 25.0911 32.4298 25.2435 32.621 25.2435C32.8088 25.2435 32.9624 25.0911 32.9624 24.9049C32.9624 20.7243 29.5315 17.3256 25.3155 17.3256ZM28.6508 28.4729L28.2036 28.7132C27.4491 29.1228 26.862 30.2456 25.931 29.3993L23.4999 26.9544L21.3999 24.9049C20.3448 23.5678 21.5262 23.2496 21.9392 22.4981L22.1816 22.058C22.4547 21.557 22.5537 20.9951 22.4718 20.4332C22.3933 19.8712 22.1372 19.3601 21.7276 18.9539C21.2292 18.4596 20.5669 18.1888 19.8602 18.1888C19.1536 18.1888 18.4879 18.4596 17.9895 18.9539L17.8154 19.1299C16.8937 20.0439 16.7878 21.618 17.515 23.5678C18.2011 25.4296 19.5837 27.4472 21.3999 29.2481C24.1685 31.9934 27.2511 33.5743 29.4632 33.5743C30.3372 33.5743 31.078 33.3272 31.6037 32.8059L31.7812 32.6298C32.2762 32.139 32.5527 31.4823 32.5561 30.7748C32.5527 30.0842 32.2694 29.4072 31.7812 28.9231C30.9585 28.1073 29.6715 27.9245 28.6508 28.4729Z" fill="#161C35"/>
</svg>
