<svg width="50" height="51" viewBox="0 0 50 51" fill="none" xmlns="http://www.w3.org/2000/svg">
<ellipse cx="25" cy="25.4499" rx="25" ry="25.0751" fill="#FFBD30"/>
<path d="M18.2591 21.037L24.2591 24.8087C24.4607 24.9351 24.7215 24.995 24.9839 24.995C25.2463 24.995 25.5071 24.9351 25.7087 24.8087L31.7087 21.037C32.0999 20.7908 32.4695 19.8331 31.7519 19.8331H18.2167C17.4991 19.8331 17.8687 20.7908 18.2591 21.037ZM31.8903 23.0993L25.7087 26.8691C25.4367 27.0358 25.2463 27.0554 24.9839 27.0554C24.7215 27.0554 24.5311 27.0358 24.2591 26.8691C23.9871 26.7025 18.5527 23.3689 18.1087 23.0984C17.7967 22.9074 17.7999 23.1311 17.7999 23.3034V30.1306C17.7999 30.5238 18.2527 31.0668 18.5999 31.0668H31.3999C31.7471 31.0668 32.1999 30.5238 32.1999 30.1306V23.3043C32.1999 23.1321 32.2031 22.9083 31.8903 23.0993Z" fill="#161C35"/>
</svg>
