<svg width="478" height="102" viewBox="0 0 478 102" fill="none" xmlns="http://www.w3.org/2000/svg">
<path d="M9.51144 26.22C8.16916 25.4033 7.72418 23.655 8.59471 22.3469C13.9718 14.2676 21.534 7.91386 30.3944 4.07257C40.1148 -0.141548 50.898 -1.11518 61.1963 1.2914C71.4946 3.69799 80.7785 9.36107 87.7157 17.4679C94.6528 25.5747 98.8865 35.7084 99.8091 46.4146C100.732 57.1208 98.2957 67.849 92.8508 77.0596C87.4059 86.2702 79.2321 93.4895 69.5024 97.6814C59.7727 101.873 48.9874 102.822 38.6945 100.392C29.3156 98.1781 20.7849 93.262 14.109 86.2613C13.0231 85.1225 13.1575 83.3213 14.338 82.2809C15.5469 81.2156 17.3881 81.3552 18.511 82.5107C24.3783 88.5484 31.8203 92.7916 39.989 94.7201C49.1034 96.8719 58.6537 96.0315 67.2693 92.3196C75.8849 88.6076 83.1228 82.215 87.9442 74.059C92.7656 65.9031 94.9227 56.4033 94.1057 46.923C93.2888 37.4427 89.5399 28.4693 83.3971 21.2908C77.2543 14.1123 69.0334 9.09763 59.9143 6.9666C50.7952 4.83558 41.2467 5.69772 32.6393 9.42931C24.9184 12.7766 18.3107 18.2784 13.5647 25.2707C12.6634 26.5985 10.8824 27.0541 9.51144 26.22Z" fill="url(#paint0_linear_913_2)"/>
<path fill-rule="evenodd" clip-rule="evenodd" d="M11.0489 37.1267C9.53349 37.2025 8.36649 38.4924 8.44229 40.0077C8.51809 41.5231 9.80799 42.6901 11.3234 42.6143L27.6322 41.7985C26.3779 42.2582 25.5307 43.5103 25.6425 44.9069C25.777 46.5867 27.2477 47.8394 28.9274 47.7049L34.8252 47.2329L21.7281 50.4486C20.077 50.854 19.0672 52.5211 19.4726 54.1722C19.8455 55.6908 21.2878 56.6705 22.8072 56.4973L22.7129 56.5207H36.0647L36.0615 56.6329L6.29095 60.9346C4.48116 61.1961 3.22602 62.8752 3.48752 64.685C3.74903 66.4948 5.42815 67.75 7.23795 67.4884L71.9809 58.1334C73.4333 57.9236 74.5284 56.8008 74.7692 55.4302C74.8161 55.2183 74.8437 54.9989 74.8502 54.7739C74.9031 52.9197 73.4428 51.3736 71.5885 51.3207L48.6935 50.6672L68.7014 46.1466C70.5912 45.7196 71.7781 43.8427 71.3539 41.9523L71.3482 41.9274C71.3799 41.7066 71.3878 41.4789 71.3692 41.2471C71.2348 39.5674 69.7641 38.3147 68.0844 38.4491L57.427 39.3021C57.7922 38.8091 57.9954 38.1913 57.9623 37.5307C57.8865 36.0153 56.5966 34.8483 55.0813 34.9241L11.0489 37.1267Z" fill="url(#paint1_linear_913_2)"/>
<path d="M66.1172 13.431H51.2821C51.2821 13.431 51.7094 18.1929 51.2821 20.0855C50.8547 21.978 50.2774 22.5412 49.6337 24.1148H47.9854V30.4029H52.381V27.3504H63.7363V30.4029H68.0098V24.1148H66.1172V13.431Z" fill="#FF8D30"/>
<path d="M60.928 16.4835H56.4713C56.4713 16.4835 56.5324 18.4982 56.2271 20.0244C55.9219 21.5507 55.5946 22.3686 55.1893 23.8706H60.928V16.4835Z" fill="#192144"/>
<path d="M30.2808 17.5995V13.431H46.8864V17.5995H41.3717V30.4029H35.9182V17.5995H30.2808Z" fill="#FF8D30"/>
<path d="M42.3687 72.1612H46.3956C47.2319 72.1612 47.9098 72.8391 47.9098 73.6754C47.9098 74.5118 47.2319 75.1897 46.3956 75.1897H42.3687V72.1612Z" fill="#FF8D30"/>
<path d="M42.3687 75.1897H46.386C47.4042 75.1897 48.2295 76.0151 48.2295 77.0332C48.2295 78.0513 47.4042 78.8767 46.386 78.8767H42.3687V75.1897Z" fill="#FF8D30"/>
<path d="M44.8107 73.3822H45.7265C45.9625 73.3822 46.1538 73.5735 46.1538 73.8095C46.1538 74.0455 45.9625 74.2369 45.7265 74.2369H44.8107V73.3822Z" fill="#192144"/>
<path d="M44.8107 76.1905H45.6044C45.9078 76.1905 46.1538 76.4365 46.1538 76.7399C46.1538 77.0434 45.9078 77.2894 45.6044 77.2894H44.8107V76.1905Z" fill="#192144"/>
<path d="M57.1429 72.1612H50.4376C50.4376 72.1612 50.4781 74.6032 50.4273 76.0073C50.423 76.1268 50.2442 76.3736 50.2442 76.3736L50.061 76.4957L49.5116 76.5568H49.0842L49.0232 78.8767H51.5873L52.4676 77.8388L52.8083 77.2894L53.0828 76.0073V73.8706H54.2124V78.8767L57.1429 79.1819V72.1612Z" fill="#FF8D30"/>
<path d="M39.1331 72.1612H35.8974L33.3333 78.8767H36.2637L36.63 77.5469H38.4615L38.7057 78.8767H41.6361L39.1331 72.1612Z" fill="#FF8D30"/>
<path d="M37.5458 73.6264L38.3389 75.8242H36.7528L37.5458 73.6264Z" fill="#192144"/>
<path d="M78.8767 72.1612H76.0073L73.8706 80.8303L76.3126 81.3187L76.6178 79.9145H78.3272L78.6325 81.8071L81.3187 82.1734L78.8767 72.1612Z" fill="#FF8D30"/>
<path d="M77.4115 73.7485L78.1517 77.2283H76.6713L77.4115 73.7485Z" fill="#192144"/>
<path d="M68.315 72.2222H65.5067V79.7924L68.315 80.1587V76.6789L69.8413 80.464L72.7717 80.7692L70.6349 76.0073L73.0769 72.2222H70.0244L68.315 75.2747V72.2222Z" fill="#FF8D30"/>
<path d="M60.4396 72.1001H57.9365V79.1819H60.0122L62.3321 75.5189V79.4872L64.7741 79.7924V72.1001H62.3321L60.4396 75.5189V72.1001Z" fill="#FF8D30"/>
<path fill-rule="evenodd" clip-rule="evenodd" d="M30.0366 72.1612H27.4725V78.8767L30.0366 78.7546V72.1612ZM31.5019 72.1612H30.0367V76.801H31.5019C32.7831 76.801 33.8218 75.7623 33.8218 74.4811C33.8218 73.1998 32.7831 72.1612 31.5019 72.1612Z" fill="#FF8D30"/>
<path d="M25.7632 72.1001H19.475C19.475 72.1001 19.6582 75.2137 19.475 76.0684C19.2919 76.9231 18.8645 76.9231 18.8645 76.9231H18.0709V79.6703L20.3908 79.4261V78.4493H24.359V78.9988L26.6789 78.8156V76.9231H25.7632V72.1001Z" fill="#FF8D30"/>
<path d="M23.0769 73.2601H21.9621C21.9621 73.2601 21.9621 75.5694 21.7232 76.0471C21.4843 76.5249 21.4843 76.4851 21.4843 76.4851L21.2454 76.9231H23.0769V73.2601Z" fill="#192144"/>
<path d="M29.9146 73.8706H31.2577C31.5948 73.8706 31.8682 74.1439 31.8682 74.4811C31.8682 74.8182 31.5948 75.0916 31.2577 75.0916H29.9146V73.8706Z" fill="#192144"/>
<path d="M12.5763 72.1612H9.89014V80.8913L12.5763 80.4029L14.652 76.4347V80.0366L17.2772 79.7314V72.1612H14.652L12.5763 76.1905V72.1612Z" fill="#FF8D30"/>
<path d="M4.0293 82.2344V72.1612H9.09645V74.9084H6.8376V81.6239L4.0293 82.2344Z" fill="#FF8D30"/>
<path d="M145.22 28.4482C144.466 28.4482 143.798 28.5964 143.214 28.8926C142.638 29.1803 142.152 29.5993 141.754 30.1494C141.365 30.6995 141.068 31.3639 140.865 32.1426C140.662 32.9212 140.561 33.7972 140.561 34.7705C140.561 36.0824 140.721 37.2038 141.043 38.1348C141.373 39.0573 141.881 39.764 142.566 40.2549C143.252 40.7373 144.136 40.9785 145.22 40.9785C145.973 40.9785 146.726 40.8939 147.479 40.7246C148.241 40.5553 149.066 40.3141 149.955 40.001V43.3018C149.134 43.6403 148.326 43.8815 147.53 44.0254C146.735 44.1777 145.842 44.2539 144.852 44.2539C142.939 44.2539 141.365 43.8604 140.129 43.0732C138.902 42.2777 137.992 41.1689 137.399 39.7471C136.807 38.3167 136.511 36.6494 136.511 34.7451C136.511 33.3402 136.701 32.0537 137.082 30.8857C137.463 29.7178 138.021 28.7064 138.758 27.8516C139.494 26.9967 140.404 26.3366 141.487 25.8711C142.571 25.4056 143.815 25.1729 145.22 25.1729C146.142 25.1729 147.065 25.2913 147.987 25.5283C148.918 25.7568 149.807 26.0742 150.653 26.4805L149.384 29.6797C148.69 29.3496 147.992 29.0618 147.289 28.8164C146.587 28.571 145.897 28.4482 145.22 28.4482ZM164.605 44H153.916V25.4395H164.605V28.6641H157.852V32.7393H164.136V35.9639H157.852V40.75H164.605V44ZM174.419 25.4395C176.814 25.4395 178.562 25.9557 179.662 26.9883C180.762 28.0124 181.312 29.4258 181.312 31.2285C181.312 32.041 181.19 32.8197 180.944 33.5645C180.699 34.3008 180.297 34.9567 179.738 35.5322C179.188 36.1077 178.452 36.5648 177.529 36.9033C176.607 37.2334 175.468 37.3984 174.114 37.3984H172.426V44H168.49V25.4395H174.419ZM174.216 28.6641H172.426V34.1738H173.721C174.457 34.1738 175.096 34.0765 175.638 33.8818C176.179 33.6872 176.598 33.3825 176.895 32.9678C177.191 32.5531 177.339 32.0199 177.339 31.3682C177.339 30.4541 177.085 29.777 176.577 29.3369C176.069 28.8883 175.282 28.6641 174.216 28.6641ZM184.816 25.4395H190.593C193.064 25.4395 194.935 25.7865 196.204 26.4805C197.474 27.1745 198.108 28.3932 198.108 30.1367C198.108 30.8392 197.994 31.474 197.766 32.041C197.546 32.6081 197.224 33.0736 196.801 33.4375C196.378 33.8014 195.861 34.0384 195.252 34.1484V34.2754C195.87 34.4023 196.428 34.6224 196.928 34.9355C197.427 35.2402 197.825 35.6888 198.121 36.2812C198.426 36.8652 198.578 37.6439 198.578 38.6172C198.578 39.7428 198.303 40.7077 197.753 41.5117C197.203 42.3158 196.416 42.9336 195.392 43.3652C194.376 43.7884 193.166 44 191.761 44H184.816V25.4395ZM188.752 32.79H191.037C192.18 32.79 192.971 32.6123 193.411 32.2568C193.851 31.8929 194.071 31.3597 194.071 30.6572C194.071 29.9463 193.809 29.4385 193.284 29.1338C192.768 28.8206 191.947 28.6641 190.821 28.6641H188.752V32.79ZM188.752 35.9131V40.75H191.316C192.501 40.75 193.326 40.5215 193.792 40.0645C194.257 39.6074 194.49 38.9938 194.49 38.2236C194.49 37.7666 194.389 37.3646 194.186 37.0176C193.982 36.6706 193.64 36.3997 193.157 36.2051C192.683 36.0104 192.027 35.9131 191.189 35.9131H188.752ZM202.285 25.4395H205.827V34.4023C205.827 34.8424 205.819 35.3291 205.802 35.8623C205.793 36.3955 205.776 36.9202 205.751 37.4365C205.734 37.9443 205.717 38.3887 205.7 38.7695C205.683 39.1504 205.666 39.4043 205.649 39.5312H205.726L214.295 25.4395H219.005V44H215.501V35.0879C215.501 34.6139 215.509 34.0977 215.526 33.5391C215.543 32.9805 215.564 32.4388 215.59 31.9141C215.624 31.3893 215.653 30.9365 215.679 30.5557C215.704 30.1663 215.721 29.9082 215.729 29.7812H215.628L207.021 44H202.285V25.4395ZM231.573 28.4482C230.82 28.4482 230.151 28.5964 229.567 28.8926C228.992 29.1803 228.505 29.5993 228.107 30.1494C227.718 30.6995 227.422 31.3639 227.219 32.1426C227.016 32.9212 226.914 33.7972 226.914 34.7705C226.914 36.0824 227.075 37.2038 227.396 38.1348C227.727 39.0573 228.234 39.764 228.92 40.2549C229.605 40.7373 230.49 40.9785 231.573 40.9785C232.326 40.9785 233.08 40.8939 233.833 40.7246C234.595 40.5553 235.42 40.3141 236.309 40.001V43.3018C235.488 43.6403 234.679 43.8815 233.884 44.0254C233.088 44.1777 232.195 44.2539 231.205 44.2539C229.292 44.2539 227.718 43.8604 226.482 43.0732C225.255 42.2777 224.345 41.1689 223.753 39.7471C223.16 38.3167 222.864 36.6494 222.864 34.7451C222.864 33.3402 223.055 32.0537 223.436 30.8857C223.816 29.7178 224.375 28.7064 225.111 27.8516C225.848 26.9967 226.757 26.3366 227.841 25.8711C228.924 25.4056 230.168 25.1729 231.573 25.1729C232.496 25.1729 233.418 25.2913 234.341 25.5283C235.272 25.7568 236.16 26.0742 237.007 26.4805L235.737 29.6797C235.043 29.3496 234.345 29.0618 233.643 28.8164C232.94 28.571 232.25 28.4482 231.573 28.4482ZM247.023 25.4395H250.565V34.4023C250.565 34.8424 250.557 35.3291 250.54 35.8623C250.532 36.3955 250.515 36.9202 250.489 37.4365C250.472 37.9443 250.455 38.3887 250.438 38.7695C250.422 39.1504 250.405 39.4043 250.388 39.5312H250.464L259.033 25.4395H263.743V44H260.239V35.0879C260.239 34.6139 260.248 34.0977 260.265 33.5391C260.282 32.9805 260.303 32.4388 260.328 31.9141C260.362 31.3893 260.392 30.9365 260.417 30.5557C260.442 30.1663 260.459 29.9082 260.468 29.7812H260.366L251.759 44H247.023V25.4395ZM281.11 25.4395C283.506 25.4395 285.253 25.9557 286.354 26.9883C287.454 28.0124 288.004 29.4258 288.004 31.2285C288.004 32.041 287.881 32.8197 287.636 33.5645C287.39 34.3008 286.988 34.9567 286.43 35.5322C285.88 36.1077 285.143 36.5648 284.221 36.9033C283.298 37.2334 282.16 37.3984 280.806 37.3984H279.117V44H275.182V25.4395H281.11ZM280.907 28.6641H279.117V34.1738H280.412C281.148 34.1738 281.787 34.0765 282.329 33.8818C282.871 33.6872 283.29 33.3825 283.586 32.9678C283.882 32.5531 284.03 32.0199 284.03 31.3682C284.03 30.4541 283.776 29.777 283.269 29.3369C282.761 28.8883 281.974 28.6641 280.907 28.6641ZM302.197 44H291.508V25.4395H302.197V28.6641H295.443V32.7393H301.728V35.9639H295.443V40.75H302.197V44ZM313.94 44L309.472 29.4385H309.357C309.374 29.7855 309.4 30.3102 309.434 31.0127C309.476 31.7067 309.514 32.4473 309.548 33.2344C309.582 34.0215 309.599 34.7324 309.599 35.3672V44H306.082V25.4395H311.439L315.832 39.6328H315.908L320.567 25.4395H325.925V44H322.256V35.2148C322.256 34.6309 322.264 33.958 322.281 33.1963C322.307 32.4346 322.336 31.7109 322.37 31.0254C322.404 30.3314 322.429 29.8109 322.446 29.4639H322.332L317.546 44H313.94ZM347.456 34.6943C347.456 36.1247 347.278 37.4281 346.923 38.6045C346.567 39.7725 346.026 40.7796 345.298 41.626C344.578 42.4723 343.664 43.124 342.556 43.5811C341.447 44.0296 340.135 44.2539 338.62 44.2539C337.105 44.2539 335.793 44.0296 334.685 43.5811C333.576 43.124 332.658 42.4723 331.93 41.626C331.21 40.7796 330.673 39.7682 330.317 38.5918C329.962 37.4154 329.784 36.1077 329.784 34.6689C329.784 32.7477 330.097 31.0762 330.724 29.6543C331.358 28.224 332.332 27.1152 333.644 26.3281C334.955 25.541 336.623 25.1475 338.646 25.1475C340.66 25.1475 342.314 25.541 343.609 26.3281C344.913 27.1152 345.878 28.224 346.504 29.6543C347.139 31.0846 347.456 32.7646 347.456 34.6943ZM333.91 34.6943C333.91 35.9893 334.071 37.1064 334.393 38.0459C334.723 38.9769 335.235 39.6963 335.929 40.2041C336.623 40.7035 337.52 40.9531 338.62 40.9531C339.737 40.9531 340.643 40.7035 341.337 40.2041C342.031 39.6963 342.535 38.9769 342.848 38.0459C343.169 37.1064 343.33 35.9893 343.33 34.6943C343.33 32.7477 342.966 31.2158 342.238 30.0986C341.51 28.9814 340.313 28.4229 338.646 28.4229C337.537 28.4229 336.631 28.6768 335.929 29.1846C335.235 29.6839 334.723 30.4033 334.393 31.3428C334.071 32.2738 333.91 33.391 333.91 34.6943ZM366.512 44H362.589V35.9893H355.238V44H351.303V25.4395H355.238V32.7139H362.589V25.4395H366.512V44ZM378.369 44H374.434V28.7148H369.394V25.4395H383.409V28.7148H378.369V44ZM145.22 63.4482C144.466 63.4482 143.798 63.5964 143.214 63.8926C142.638 64.1803 142.152 64.5993 141.754 65.1494C141.365 65.6995 141.068 66.3639 140.865 67.1426C140.662 67.9212 140.561 68.7972 140.561 69.7705C140.561 71.0824 140.721 72.2038 141.043 73.1348C141.373 74.0573 141.881 74.764 142.566 75.2549C143.252 75.7373 144.136 75.9785 145.22 75.9785C145.973 75.9785 146.726 75.8939 147.479 75.7246C148.241 75.5553 149.066 75.3141 149.955 75.001V78.3018C149.134 78.6403 148.326 78.8815 147.53 79.0254C146.735 79.1777 145.842 79.2539 144.852 79.2539C142.939 79.2539 141.365 78.8604 140.129 78.0732C138.902 77.2777 137.992 76.1689 137.399 74.7471C136.807 73.3167 136.511 71.6494 136.511 69.7451C136.511 68.3402 136.701 67.0537 137.082 65.8857C137.463 64.7178 138.021 63.7064 138.758 62.8516C139.494 61.9967 140.404 61.3366 141.487 60.8711C142.571 60.4056 143.815 60.1729 145.22 60.1729C146.142 60.1729 147.065 60.2913 147.987 60.5283C148.918 60.7568 149.807 61.0742 150.653 61.4805L149.384 64.6797C148.69 64.3496 147.992 64.0618 147.289 63.8164C146.587 63.571 145.897 63.4482 145.22 63.4482ZM153.916 79V60.4395H168.604V79H164.682V63.7148H157.852V79H153.916ZM183.979 79H173.289V60.4395H183.979V63.6641H177.225V67.7393H183.509V70.9639H177.225V75.75H183.979V79ZM205.319 75.877V84.4082H201.523V79H187.863V60.4395H191.799V75.7246H198.629V60.4395H202.552V75.877H205.319ZM208.176 60.4395H211.718V69.4023C211.718 69.8424 211.709 70.3291 211.692 70.8623C211.684 71.3955 211.667 71.9202 211.642 72.4365C211.625 72.9443 211.608 73.3887 211.591 73.7695C211.574 74.1504 211.557 74.4043 211.54 74.5312H211.616L220.186 60.4395H224.896V79H221.392V70.0879C221.392 69.6139 221.4 69.0977 221.417 68.5391C221.434 67.9805 221.455 67.4388 221.48 66.9141C221.514 66.3893 221.544 65.9365 221.569 65.5557C221.595 65.1663 221.612 64.9082 221.62 64.7812H221.519L212.911 79H208.176V60.4395ZM240.942 79L239.597 74.582H232.83L231.484 79H227.244L233.795 60.3633H238.606L245.183 79H240.942ZM238.657 71.2812L237.312 66.9648C237.227 66.6771 237.113 66.3089 236.969 65.8604C236.833 65.4033 236.694 64.9421 236.55 64.4766C236.414 64.0026 236.304 63.5921 236.22 63.2451C236.135 63.5921 236.017 64.0238 235.864 64.54C235.72 65.0479 235.581 65.5303 235.445 65.9873C235.31 66.4443 235.213 66.7702 235.153 66.9648L233.82 71.2812H238.657ZM262.22 79H258.297V63.7148H253.752C253.65 64.5104 253.54 65.3779 253.422 66.3174C253.303 67.2568 253.181 68.2048 253.054 69.1611C252.927 70.1175 252.791 71.0273 252.647 71.8906C252.512 72.7539 252.377 73.5114 252.241 74.1631C252.021 75.2464 251.721 76.1689 251.34 76.9307C250.967 77.6839 250.455 78.2594 249.804 78.6572C249.16 79.055 248.318 79.2539 247.277 79.2539C246.93 79.2539 246.596 79.2285 246.274 79.1777C245.961 79.127 245.669 79.0592 245.398 78.9746V75.75C245.618 75.8262 245.839 75.8896 246.059 75.9404C246.279 75.9827 246.52 76.0039 246.782 76.0039C247.121 76.0039 247.4 75.8939 247.62 75.6738C247.849 75.4453 248.052 75.0602 248.229 74.5186C248.407 73.9684 248.585 73.2109 248.763 72.2461C248.839 71.8229 248.94 71.2262 249.067 70.4561C249.194 69.6774 249.338 68.7676 249.499 67.7266C249.66 66.6771 249.825 65.5345 249.994 64.2988C250.172 63.0632 250.341 61.7767 250.502 60.4395H262.22V79ZM266.904 79V60.4395H270.84V67.5615H272.389C274.132 67.5615 275.562 67.8027 276.68 68.2852C277.805 68.7676 278.635 69.4362 279.168 70.291C279.71 71.1374 279.98 72.1064 279.98 73.1982C279.98 75.0348 279.367 76.4609 278.14 77.4766C276.921 78.4922 274.979 79 272.312 79H266.904ZM270.84 75.7754H272.16C273.354 75.7754 274.293 75.585 274.979 75.2041C275.664 74.8148 276.007 74.1462 276.007 73.1982C276.007 72.5381 275.838 72.0345 275.499 71.6875C275.169 71.3405 274.691 71.1035 274.064 70.9766C273.447 70.8496 272.706 70.7861 271.843 70.7861H270.84V75.7754ZM298.719 79H294.796V70.9893H287.445V79H283.51V60.4395H287.445V67.7139H294.796V60.4395H298.719V79ZM320.263 69.6943C320.263 71.1247 320.085 72.4281 319.729 73.6045C319.374 74.7725 318.832 75.7796 318.104 76.626C317.385 77.4723 316.471 78.124 315.362 78.5811C314.254 79.0296 312.942 79.2539 311.427 79.2539C309.912 79.2539 308.6 79.0296 307.491 78.5811C306.382 78.124 305.464 77.4723 304.736 76.626C304.017 75.7796 303.479 74.7682 303.124 73.5918C302.769 72.4154 302.591 71.1077 302.591 69.6689C302.591 67.7477 302.904 66.0762 303.53 64.6543C304.165 63.224 305.138 62.1152 306.45 61.3281C307.762 60.541 309.429 60.1475 311.452 60.1475C313.466 60.1475 315.121 60.541 316.416 61.3281C317.719 62.1152 318.684 63.224 319.311 64.6543C319.945 66.0846 320.263 67.7646 320.263 69.6943ZM306.717 69.6943C306.717 70.9893 306.878 72.1064 307.199 73.0459C307.529 73.9769 308.041 74.6963 308.735 75.2041C309.429 75.7035 310.326 75.9531 311.427 75.9531C312.544 75.9531 313.45 75.7035 314.144 75.2041C314.838 74.6963 315.341 73.9769 315.654 73.0459C315.976 72.1064 316.137 70.9893 316.137 69.6943C316.137 67.7477 315.773 66.2158 315.045 65.0986C314.317 63.9814 313.119 63.4229 311.452 63.4229C310.343 63.4229 309.438 63.6768 308.735 64.1846C308.041 64.6839 307.529 65.4033 307.199 66.3428C306.878 67.2738 306.717 68.391 306.717 69.6943ZM324.109 60.4395H327.651V69.4023C327.651 69.8424 327.643 70.3291 327.626 70.8623C327.618 71.3955 327.601 71.9202 327.575 72.4365C327.558 72.9443 327.541 73.3887 327.524 73.7695C327.507 74.1504 327.491 74.4043 327.474 74.5312H327.55L336.119 60.4395H340.829V79H337.325V70.0879C337.325 69.6139 337.334 69.0977 337.351 68.5391C337.368 67.9805 337.389 67.4388 337.414 66.9141C337.448 66.3893 337.478 65.9365 337.503 65.5557C337.528 65.1663 337.545 64.9082 337.554 64.7812H337.452L328.845 79H324.109V60.4395ZM339.064 54.333C338.971 55.2301 338.717 56.0215 338.303 56.707C337.888 57.3926 337.241 57.9258 336.36 58.3066C335.48 58.6875 334.295 58.8779 332.806 58.8779C331.274 58.8779 330.08 58.696 329.226 58.332C328.371 57.9596 327.761 57.4349 327.397 56.7578C327.034 56.0723 326.813 55.264 326.737 54.333H330.203C330.279 55.2894 330.521 55.9242 330.927 56.2373C331.333 56.542 331.985 56.6943 332.882 56.6943C333.627 56.6943 334.236 56.5251 334.71 56.1865C335.184 55.848 335.467 55.2301 335.561 54.333H339.064ZM359.428 79H355.492V63.7148H350.452V60.4395H364.468V63.7148H359.428V79ZM378.014 79H367.324V60.4395H378.014V63.6641H371.26V67.7393H377.544V70.9639H371.26V75.75H378.014V79ZM396.904 79H392.41L388.094 71.9795L383.777 79H379.562L385.72 69.4277L379.956 60.4395H384.298L388.297 67.1172L392.22 60.4395H396.46L390.633 69.6436L396.904 79ZM414.449 79H410.526V70.9893H403.176V79H399.24V60.4395H403.176V67.7139H410.526V60.4395H414.449V79ZM419.146 60.4395H422.688V69.4023C422.688 69.8424 422.68 70.3291 422.663 70.8623C422.655 71.3955 422.638 71.9202 422.612 72.4365C422.595 72.9443 422.578 73.3887 422.562 73.7695C422.545 74.1504 422.528 74.4043 422.511 74.5312H422.587L431.156 60.4395H435.866V79H432.362V70.0879C432.362 69.6139 432.371 69.0977 432.388 68.5391C432.405 67.9805 432.426 67.4388 432.451 66.9141C432.485 66.3893 432.515 65.9365 432.54 65.5557C432.565 65.1663 432.582 64.9082 432.591 64.7812H432.489L423.882 79H419.146V60.4395ZM455.684 79H451.215L444.486 69.5928V79H440.551V60.4395H444.486V69.4277L451.139 60.4395H455.328L448.562 69.3516L455.684 79ZM458.02 60.4395H461.562V69.4023C461.562 69.8424 461.553 70.3291 461.536 70.8623C461.528 71.3955 461.511 71.9202 461.485 72.4365C461.468 72.9443 461.451 73.3887 461.435 73.7695C461.418 74.1504 461.401 74.4043 461.384 74.5312H461.46L470.029 60.4395H474.739V79H471.235V70.0879C471.235 69.6139 471.244 69.0977 471.261 68.5391C471.278 67.9805 471.299 67.4388 471.324 66.9141C471.358 66.3893 471.388 65.9365 471.413 65.5557C471.438 65.1663 471.455 64.9082 471.464 64.7812H471.362L462.755 79H458.02V60.4395Z" fill="url(#paint2_linear_913_2)"/>
<defs>
<linearGradient id="paint0_linear_913_2" x1="12.3909" y1="53.3577" x2="102.989" y2="48.2295" gradientUnits="userSpaceOnUse">
<stop stop-color="#FFD74B"/>
<stop offset="1" stop-color="#FF8D30"/>
</linearGradient>
<linearGradient id="paint1_linear_913_2" x1="6.382" y1="52.9115" x2="74.845" y2="45.4021" gradientUnits="userSpaceOnUse">
<stop stop-color="#FFD74B"/>
<stop offset="1" stop-color="#FF9232"/>
</linearGradient>
<linearGradient id="paint2_linear_913_2" x1="135" y1="51" x2="502.5" y2="51" gradientUnits="userSpaceOnUse">
<stop stop-color="#FF8D30"/>
<stop offset="1" stop-color="#FFBD30"/>
</linearGradient>
</defs>
</svg>
