<svg width="352" height="78" viewBox="0 0 352 78" fill="none" xmlns="http://www.w3.org/2000/svg">
<path d="M29.6251 48.1141C29.6251 48.2555 29.4813 48.3261 29.1937 48.3261C28.8522 48.3261 28.3309 48.2996 27.63 48.2466C26.929 48.1936 26.4078 48.1671 26.0662 48.1671C25.6889 48.1671 25.1226 48.1936 24.3677 48.2466C23.6308 48.2996 23.0736 48.3261 22.6962 48.3261C22.2827 48.3261 21.9682 48.1053 21.7525 47.6638C21.1774 46.4626 19.5418 42.7446 16.8457 36.5095C16.576 35.8736 15.92 35.4851 14.8775 35.3437C14.6439 35.3261 13.8261 35.3172 12.4242 35.3172C9.94377 35.3172 8.46985 35.3526 8.00259 35.4232C7.62505 35.4763 7.43637 35.9266 7.43637 36.7744C7.43637 38.0108 7.49029 39.8655 7.59814 42.3383C7.72392 44.7934 7.7869 46.6304 7.7869 47.8492C7.7869 48.2201 7.60711 48.4056 7.24769 48.4056C6.88818 48.4056 6.34 48.3703 5.60304 48.2996C4.88409 48.2113 4.33588 48.1671 3.95843 48.1671C3.65287 48.1671 3.18556 48.1936 2.55647 48.2466C1.92738 48.2996 1.46007 48.3261 1.15451 48.3261C0.705165 48.3261 0.480489 48.1229 0.480489 47.7167C0.480489 45.7561 0.570362 42.8152 0.750097 38.894C0.947813 34.9552 1.04667 32.0054 1.04667 30.0448C1.04667 24.4633 0.839969 18.5108 0.426568 12.1875L0.399607 11.7636C0.381636 11.4103 0.759087 11.2337 1.53196 11.2337C3.07771 11.2337 5.38735 11.1983 8.46088 11.1277C11.5524 11.0394 13.862 10.9953 15.3898 10.9953C19.38 10.9953 22.5794 11.9314 24.9878 13.8036C27.648 15.8703 28.978 18.8023 28.978 22.5998C28.978 25.214 28.6186 27.2718 27.8996 28.7731C27.1447 30.3628 25.7427 31.873 23.6937 33.3036C23.3522 33.5333 23.1815 33.7541 23.1815 33.966C23.1815 34.2133 24.2509 36.5625 26.3898 41.0136C28.5466 45.4647 29.6251 47.8315 29.6251 48.1141ZM22.2379 24.0835C22.2379 20.8865 21.3032 18.7493 19.434 17.6719C18.0499 16.877 15.5606 16.4796 11.9658 16.4796C9.05402 16.4796 7.57122 16.7092 7.51721 17.1685C7.39142 18.1223 7.32853 20.6746 7.32853 24.8254V29.8859C7.38245 29.9212 7.49927 29.9565 7.67906 29.9918C8.00259 30.0272 8.53275 30.0714 9.26971 30.1243C10.9773 30.2126 12.8196 30.2568 14.7967 30.2568C19.7575 30.2568 22.2379 28.199 22.2379 24.0835ZM66.3187 47.0279C66.3547 47.4164 66.13 47.6107 65.6447 47.6107C65.3751 47.6107 64.719 47.3635 63.6766 46.8688C62.6521 46.3567 61.996 45.9946 61.7085 45.7826C58.4012 47.9905 54.483 49.0944 49.9536 49.0944C44.6693 49.0944 40.3196 47.1515 36.9046 43.2656C33.6693 39.5917 32.0516 35.1142 32.0516 29.8329C32.0516 24.428 33.6423 19.8886 36.8236 16.2147C40.1847 12.3288 44.5614 10.3859 49.9536 10.3859C52.7215 10.3859 55.3816 11.0306 57.934 12.3199C60.5042 13.5917 62.5532 15.3404 64.081 17.5659C64.3147 17.9015 64.4315 18.1576 64.4315 18.3342C64.4315 18.5815 63.7844 19.4028 62.4903 20.7982C61.2141 22.1759 60.4773 22.8648 60.2795 22.8648C60.1357 22.8648 59.5875 22.3261 58.6349 21.2486C57.4846 19.9415 56.3882 18.9437 55.3457 18.2547C53.7101 17.1773 52.0026 16.6386 50.2231 16.6386C46.8261 16.6386 44.0401 18.0339 41.8653 20.8247C39.8882 23.3682 38.8996 26.3709 38.8996 29.8329C38.8996 33.2065 39.9151 36.1916 41.9462 38.788C44.157 41.5965 46.934 43.0007 50.2771 43.0007C53.5662 43.0007 56.5858 42.1175 59.3359 40.3513C59.3 39.8743 59.1472 38.1963 58.8776 35.3172C58.6619 33.2683 58.554 31.5991 58.554 30.3098C58.554 30.0095 58.7518 29.8594 59.1472 29.8594C59.4886 29.8594 60.0009 29.8859 60.6839 29.9389C61.3669 29.9742 61.8792 29.9918 62.2207 29.9918C62.5622 29.9918 63.0834 29.9742 63.7844 29.9389C64.4854 29.9035 65.0067 29.8859 65.3481 29.8859C65.7256 29.8859 65.9144 30.1684 65.9144 30.7337C65.9144 31.3519 65.8874 32.288 65.8334 33.5421C65.7975 34.7785 65.7795 35.7058 65.7795 36.3241C65.7795 38.8676 65.9502 42.3118 66.2917 46.6569L66.3187 47.0279ZM92.1739 13.8302C91.815 14.413 91.3206 15.2962 90.6908 16.4796C90.4933 17.0271 90.143 17.8043 89.64 18.8111C89.5322 18.9701 89.3881 19.0496 89.2087 19.0496C89.2268 19.0496 88.3545 18.7405 86.5928 18.1223C84.8501 17.4864 83.4119 17.1685 82.2795 17.1685C78.9724 17.1685 77.3187 18.5992 77.3187 21.4606C77.3187 23.0503 78.478 24.4368 80.7967 25.6203C84.6974 27.6161 86.8542 28.7643 87.2675 29.0645C89.5857 30.8838 90.7452 33.339 90.7452 36.4301C90.7452 40.3865 89.1543 43.5041 85.9734 45.7826C83.1153 47.8315 79.6014 48.856 75.4315 48.856C73.4903 48.856 72.4478 48.644 72.304 48.2201C72.2322 47.5489 72.0704 46.5686 71.8187 45.2792C71.6749 44.7493 71.4502 43.9545 71.1447 42.8947C71.0908 42.7357 71.0638 42.5856 71.0638 42.4443C71.0638 42.197 71.1987 42.0734 71.4682 42.0734C71.8996 42.0734 72.5557 42.1175 73.4364 42.2058C74.3351 42.2941 75.0091 42.3383 75.4584 42.3383C81.0303 42.3383 83.8163 40.572 83.8163 37.0394C83.8163 35.3084 82.6929 33.8071 80.4462 32.5353C76.3481 30.2392 74.2542 29.0469 74.1643 28.9585C71.8996 27.1569 70.7673 24.7371 70.7673 21.6991C70.7673 18.4138 71.8637 15.7819 74.0564 13.8036C76.1953 11.896 78.9634 10.9422 82.3604 10.9422C83.7983 10.9422 85.4523 11.1719 87.321 11.6312C89.3519 12.1433 90.8798 12.7616 91.9047 13.4857C91.9945 13.5564 92.0842 13.6712 92.1739 13.8302Z" fill="#192144"/>
<path d="M182.069 26.0971C182.069 26.8389 180.307 30.4775 176.784 37.0128C174.555 41.0931 172.327 45.1732 170.098 49.2534C169.828 49.7656 169.532 50.0217 169.208 50.0217H163.789C163.537 50.0217 163.286 49.7656 163.034 49.2534C162.98 49.1474 160.841 45.1909 156.618 37.3839C153.005 30.6895 151.198 27.0333 151.198 26.415C151.198 25.0197 151.243 22.9266 151.333 20.1359C151.442 17.3274 151.495 15.2255 151.495 13.8301C151.495 13.1766 151.711 12.8498 152.142 12.8498C152.484 12.8498 152.978 12.8763 153.625 12.9293C154.29 12.9823 154.793 13.0089 155.135 13.0089C155.458 13.0089 155.953 12.9823 156.618 12.9293C157.282 12.8763 157.777 12.8498 158.1 12.8498C158.513 12.8498 158.721 13.0177 158.721 13.3532C158.721 14.7839 158.621 16.9389 158.424 19.8179C158.244 22.697 158.155 24.8607 158.155 26.309C158.155 27.5102 160.94 32.8621 166.512 42.3648C167.986 39.892 169.586 37.057 171.311 33.86C173.81 29.2323 175.058 26.5122 175.058 25.6997C175.058 24.322 175.013 22.2642 174.924 19.5264C174.834 16.7887 174.789 14.7398 174.789 13.3797C174.789 13.0265 174.987 12.8498 175.383 12.8498C175.724 12.8498 176.227 12.8763 176.893 12.9293C177.557 12.9823 178.051 13.0089 178.375 13.0089C178.698 13.0089 179.184 12.9823 179.831 12.9293C180.496 12.8763 180.991 12.8498 181.313 12.8498C181.709 12.8498 181.934 13.0177 181.988 13.3532C181.97 13.2296 181.96 13.5652 181.96 14.36C181.96 15.6671 181.978 17.6277 182.015 20.2418C182.051 22.8383 182.069 24.7901 182.069 26.0971ZM222.159 31.4225C222.159 36.6685 220.452 41.1814 217.037 44.9612C213.478 48.8824 209.057 50.8431 203.772 50.8431C198.47 50.8431 194.048 48.8913 190.508 44.9878C187.092 41.2255 185.385 36.7038 185.385 31.4225C185.385 26.1942 187.11 21.6814 190.561 17.8839C194.12 13.9449 198.523 11.9755 203.772 11.9755C209.038 11.9755 213.451 13.9449 217.01 17.8839C220.443 21.6637 222.159 26.1766 222.159 31.4225ZM215.662 31.3431C215.662 27.8811 214.565 24.8695 212.372 22.3084C210.072 19.5883 207.187 18.2282 203.718 18.2282C200.285 18.2282 197.428 19.606 195.145 22.3614C192.988 24.9402 191.909 27.9606 191.909 31.4225C191.909 34.8668 192.988 37.8784 195.145 40.4572C197.428 43.2127 200.285 44.5904 203.718 44.5904C207.205 44.5904 210.099 43.2127 212.4 40.4572C214.575 37.8784 215.662 34.8404 215.662 31.3431ZM252.032 44.2724C252.032 46.7452 251.897 48.5027 251.627 49.5448C251.502 50.0571 251.187 50.3132 250.684 50.3132C249.354 50.3132 247.359 50.2337 244.698 50.0747C242.038 49.9334 240.043 49.8628 238.713 49.8628C237.455 49.8628 235.576 49.8893 233.078 49.9422C230.58 49.9953 228.702 50.0217 227.443 50.0217C226.994 50.0217 226.77 49.8009 226.77 49.3594C226.77 47.4341 226.833 44.5285 226.958 40.6426C227.102 36.7568 227.174 33.8424 227.174 31.8994C227.174 29.8505 227.075 26.786 226.877 22.7058C226.698 18.608 226.607 15.5346 226.607 13.4857C226.607 13.0971 226.833 12.9029 227.282 12.9029C227.606 12.9029 228.1 12.9293 228.764 12.9823C229.429 13.0353 229.933 13.0618 230.274 13.0618C230.598 13.0618 231.101 13.0353 231.784 12.9823C232.467 12.9293 232.971 12.9029 233.294 12.9029C233.725 12.9029 233.941 13.0707 233.941 13.4062C233.941 15.2785 233.869 18.0958 233.725 21.858C233.582 25.6203 233.509 28.4463 233.509 30.3362C233.509 31.2548 233.509 32.6501 233.509 34.5224C233.492 36.3947 233.483 37.79 233.483 38.7085C233.483 42.6297 233.645 44.5904 233.968 44.5904C240.6 44.5904 245.606 44.4313 248.985 44.1134C249.147 44.0958 249.561 44.0339 250.226 43.928C250.764 43.822 251.178 43.769 251.466 43.769C251.843 43.769 252.032 43.9368 252.032 44.2724ZM288.187 48.7235C288.222 49.1121 287.998 49.3063 287.512 49.3063C287.243 49.3063 286.586 49.0591 285.544 48.5645C284.52 48.0523 283.863 47.6902 283.576 47.4782C280.268 49.6861 276.351 50.79 271.821 50.79C266.537 50.79 262.187 48.8471 258.772 44.9612C255.537 41.2873 253.919 36.8098 253.919 31.5285C253.919 26.1236 255.509 21.5842 258.691 17.9103C262.052 14.0245 266.429 12.0815 271.821 12.0815C274.589 12.0815 277.249 12.7262 279.802 14.0156C282.372 15.2873 284.421 17.036 285.949 19.2616C286.182 19.5971 286.299 19.8533 286.299 20.0299C286.299 20.2772 285.652 21.0985 284.358 22.4938C283.082 23.8715 282.345 24.5605 282.147 24.5605C282.003 24.5605 281.455 24.0217 280.502 22.9443C279.352 21.6372 278.256 20.6393 277.213 19.9503C275.578 18.8729 273.87 18.3342 272.09 18.3342C268.694 18.3342 265.908 19.7296 263.733 22.5204C261.756 25.0638 260.767 28.0666 260.767 31.5285C260.767 34.9022 261.782 37.8872 263.814 40.4837C266.024 43.2921 268.802 44.6964 272.145 44.6964C275.434 44.6964 278.453 43.8132 281.204 42.0469C281.167 41.5699 281.015 39.892 280.745 37.0128C280.529 34.964 280.422 33.2948 280.422 32.0054C280.422 31.7051 280.62 31.555 281.015 31.555C281.356 31.555 281.869 31.5815 282.551 31.6345C283.235 31.6698 283.747 31.6875 284.089 31.6875C284.429 31.6875 284.951 31.6698 285.652 31.6345C286.352 31.5991 286.874 31.5815 287.215 31.5815C287.593 31.5815 287.782 31.8641 287.782 32.4293C287.782 33.0476 287.755 33.9836 287.701 35.2378C287.665 36.4741 287.647 37.4015 287.647 38.0197C287.647 40.5632 287.817 44.0074 288.159 48.3525L288.187 48.7235ZM325.796 49.7038C325.796 49.9157 325.581 50.0217 325.149 50.0217C324.808 50.0217 324.305 49.9953 323.639 49.9422C322.992 49.8893 322.498 49.8628 322.156 49.8628C321.816 49.8628 321.303 49.8893 320.62 49.9422C319.937 49.9953 319.425 50.0217 319.083 50.0217C318.58 50.0217 317.933 48.6882 317.142 46.021C316.369 43.3363 315.579 41.9762 314.77 41.9409C314.104 41.9056 312.37 41.8878 309.566 41.8878H305.306C302.341 41.8878 300.651 41.9056 300.237 41.9409C299.59 41.9938 298.898 43.3539 298.162 46.021C297.443 48.6882 296.886 50.0217 296.49 50.0217H290.424C290.065 50.0217 289.885 49.8981 289.885 49.6508C289.885 49.4742 290.01 49.0767 290.262 48.4585L296.868 30.7072C297.425 29.2764 299.114 25.1522 301.936 18.3342C302.439 17.2038 303.122 15.4993 303.985 13.2208C304.201 12.5496 304.435 12.2139 304.686 12.2139C305.027 12.2139 305.531 12.2581 306.196 12.3464C306.861 12.4348 307.365 12.479 307.705 12.479C308.03 12.479 308.515 12.4348 309.162 12.3464C309.827 12.2405 310.312 12.1875 310.618 12.1875C310.779 12.1875 311.004 12.5142 311.292 13.1677C311.723 14.1569 313.853 19.4823 317.681 29.144C323.092 42.7269 325.796 49.5802 325.796 49.7038ZM313.233 35.0788C313.233 34.5665 312.424 32.2704 310.806 28.1902C309.243 24.2336 308.137 21.6372 307.49 20.4008C303.77 29.7269 301.909 34.6107 301.909 35.0523C301.909 35.6528 302.592 36.0061 303.958 36.1121C304.03 36.1297 304.911 36.1386 306.6 36.1386H309.377C311.948 36.1386 313.233 35.7853 313.233 35.0788Z" fill="#192144"/>
<path d="M121.647 47.4783C131.177 47.4783 138.902 39.8866 138.902 30.5218C138.902 21.1569 131.177 13.5652 121.647 13.5652C112.117 13.5652 104.392 21.1569 104.392 30.5218C104.392 39.8866 112.117 47.4783 121.647 47.4783Z" fill="url(#paint0_linear_572_40)"/>
<defs>
<linearGradient id="paint0_linear_572_40" x1="104.554" y1="30.3334" x2="139.406" y2="30.3334" gradientUnits="userSpaceOnUse">
<stop offset="0.015625" stop-color="#FF8D30"/>
<stop offset="0.9998" stop-color="#FFD748"/>
<stop offset="0.9999" stop-color="#F8C109" stop-opacity="0.510417"/>
<stop offset="0.9999" stop-color="#FFD748" stop-opacity="0.510417"/>
<stop offset="1" stop-color="#F8C208" stop-opacity="0.5"/>
</linearGradient>
</defs>
</svg>
