<svg width="353" height="78" viewBox="0 0 353 78" fill="none" xmlns="http://www.w3.org/2000/svg">
<path d="M29.7092 48.1141C29.7092 48.2555 29.5651 48.3261 29.2766 48.3261C28.9342 48.3261 28.4114 48.2996 27.7085 48.2466C27.0055 48.1937 26.4828 48.1671 26.1403 48.1671C25.7619 48.1671 25.194 48.1937 24.437 48.2466C23.6979 48.2996 23.1392 48.3261 22.7607 48.3261C22.3461 48.3261 22.0306 48.1053 21.8143 47.6638C21.2376 46.4626 19.5973 42.7446 16.8936 36.5095C16.6231 35.8736 15.9652 35.4851 14.9198 35.3437C14.6855 35.3261 13.8654 35.3172 12.4595 35.3172C9.97202 35.3172 8.49392 35.3526 8.02533 35.4232C7.64672 35.4763 7.4575 35.9266 7.4575 36.7745C7.4575 38.0108 7.51158 39.8655 7.61973 42.3383C7.74587 44.7934 7.80903 46.6304 7.80903 47.8492C7.80903 48.2201 7.62872 48.4056 7.26828 48.4056C6.90776 48.4056 6.35801 48.3703 5.61896 48.2996C4.89797 48.2113 4.3482 48.1671 3.96968 48.1671C3.66325 48.1671 3.19461 48.1937 2.56374 48.2466C1.93286 48.2996 1.46422 48.3261 1.15779 48.3261C0.707172 48.3261 0.481858 48.1229 0.481858 47.7167C0.481858 45.7562 0.571985 42.8152 0.752231 38.894C0.950508 34.9552 1.04964 32.0054 1.04964 30.0448C1.04964 24.4633 0.842359 18.5108 0.427783 12.1875L0.400746 11.7636C0.382723 11.4103 0.761247 11.2337 1.53632 11.2337C3.08646 11.2337 5.40266 11.1983 8.48492 11.1277C11.5852 11.0394 13.9014 10.9953 15.4335 10.9953C19.435 10.9953 22.6435 11.9314 25.0588 13.8036C27.7265 15.8703 29.0603 18.8023 29.0603 22.5998C29.0603 25.214 28.6999 27.2718 27.9788 28.7731C27.2218 30.3628 25.8158 31.873 23.761 33.3036C23.4186 33.5333 23.2473 33.7541 23.2473 33.966C23.2473 34.2133 24.3198 36.5625 26.4647 41.0136C28.6277 45.4647 29.7092 47.8315 29.7092 48.1141ZM22.3011 24.0835C22.3011 20.8865 21.3637 18.7493 19.4892 17.6719C18.1012 16.877 15.6048 16.4796 11.9998 16.4796C9.07974 16.4796 7.59273 16.7092 7.53857 17.1685C7.41242 18.1223 7.34935 20.6746 7.34935 24.8254V29.8859C7.40343 29.9212 7.52057 29.9565 7.70088 29.9918C8.02533 30.0272 8.55699 30.0714 9.29604 30.1243C11.0084 30.2126 12.856 30.2568 14.8387 30.2568C19.8136 30.2568 22.3011 28.199 22.3011 24.0835ZM66.5071 47.0279C66.5432 47.4164 66.3179 47.6107 65.8312 47.6107C65.5609 47.6107 64.9029 47.3635 63.8575 46.8688C62.8301 46.3567 62.1722 45.9946 61.8838 45.7826C58.5672 47.9905 54.6378 49.0944 50.0955 49.0944C44.7962 49.0944 40.4341 47.1515 37.0094 43.2656C33.7649 39.5917 32.1427 35.1142 32.1427 29.8329C32.1427 24.428 33.7378 19.8886 36.9282 16.2147C40.2989 12.3288 44.688 10.3859 50.0955 10.3859C52.8713 10.3859 55.539 11.0306 58.0986 12.3199C60.6761 13.5917 62.7309 15.3404 64.2631 17.5659C64.4974 17.9015 64.6145 18.1576 64.6145 18.3342C64.6145 18.5815 63.9656 19.4028 62.6678 20.7982C61.388 22.1759 60.6491 22.8648 60.4508 22.8648C60.3065 22.8648 59.7568 22.3261 58.8014 21.2486C57.6479 19.9415 56.5484 18.9437 55.503 18.2547C53.8626 17.1773 52.1503 16.6386 50.3658 16.6386C46.9592 16.6386 44.1653 18.0339 41.9843 20.8247C40.0015 23.3682 39.0101 26.3709 39.0101 29.8329C39.0101 33.2065 40.0285 36.1916 42.0653 38.788C44.2824 41.5965 47.0673 43.0007 50.4199 43.0007C53.7184 43.0007 56.7466 42.1175 59.5045 40.3513C59.4684 39.8743 59.3152 38.1963 59.0448 35.3172C58.8285 33.2684 58.7204 31.5992 58.7204 30.3098C58.7204 30.0095 58.9187 29.8594 59.3152 29.8594C59.6576 29.8594 60.1714 29.8859 60.8563 29.9389C61.5413 29.9742 62.055 29.9918 62.3975 29.9918C62.7399 29.9918 63.2627 29.9742 63.9656 29.9389C64.6686 29.9035 65.1913 29.8859 65.5338 29.8859C65.9123 29.8859 66.1016 30.1684 66.1016 30.7337C66.1016 31.3519 66.0745 32.288 66.0205 33.5421C65.9844 34.7785 65.9664 35.7059 65.9664 36.3241C65.9664 38.8676 66.1376 42.3118 66.4801 46.6569L66.5071 47.0279ZM92.4358 13.8302C92.0758 14.413 91.5801 15.2962 90.9485 16.4796C90.7504 17.0271 90.3991 17.8043 89.8947 18.8111C89.7865 18.9701 89.6421 19.0496 89.4621 19.0496C89.4803 19.0496 88.6055 18.7405 86.8388 18.1223C85.0911 17.4864 83.6488 17.1685 82.5133 17.1685C79.1967 17.1685 77.5384 18.5992 77.5384 21.4606C77.5384 23.0503 78.701 24.4368 81.0263 25.6203C84.938 27.6162 87.101 28.7643 87.5154 29.0645C89.8402 30.8838 91.003 33.339 91.003 36.4301C91.003 40.3865 89.4076 43.5041 86.2176 45.7826C83.3514 47.8315 79.8275 48.856 75.6458 48.856C73.6991 48.856 72.6537 48.644 72.5094 48.2201C72.4374 47.5489 72.2751 46.5686 72.0228 45.2792C71.8785 44.7493 71.6532 43.9545 71.3468 42.8947C71.2928 42.7357 71.2657 42.5856 71.2657 42.4443C71.2657 42.197 71.4009 42.0734 71.6712 42.0734C72.1038 42.0734 72.7618 42.1175 73.645 42.2058C74.5463 42.2941 75.2222 42.3383 75.6728 42.3383C81.2605 42.3383 84.0544 40.572 84.0544 37.0394C84.0544 35.3084 82.9279 33.8071 80.6747 32.5353C76.565 30.2392 74.4651 29.0469 74.375 28.9585C72.1038 27.1569 70.9684 24.7371 70.9684 21.6991C70.9684 18.4138 72.0678 15.7819 74.2668 13.8036C76.4118 11.896 79.1877 10.9422 82.5943 10.9422C84.0364 10.9422 85.695 11.1719 87.569 11.6312C89.6057 12.1433 91.138 12.7616 92.1658 13.4857C92.2558 13.5564 92.3458 13.6712 92.4358 13.8302Z" fill="#EDEFF6"/>
<path d="M182.586 26.0971C182.586 26.839 180.82 30.4776 177.286 37.0129C175.051 41.0931 172.816 45.1732 170.581 49.2534C170.311 49.7656 170.013 50.0217 169.689 50.0217H164.254C164.002 50.0217 163.75 49.7656 163.497 49.2534C163.443 49.1475 161.298 45.1909 157.063 37.3839C153.44 30.6895 151.628 27.0333 151.628 26.415C151.628 25.0197 151.673 22.9267 151.763 20.1359C151.872 17.3274 151.925 15.2255 151.925 13.8302C151.925 13.1767 152.142 12.8498 152.574 12.8498C152.917 12.8498 153.413 12.8764 154.062 12.9293C154.729 12.9823 155.233 13.0089 155.576 13.0089C155.9 13.0089 156.396 12.9823 157.063 12.9293C157.729 12.8764 158.225 12.8498 158.549 12.8498C158.964 12.8498 159.171 13.0177 159.171 13.3533C159.171 14.784 159.072 16.9389 158.874 19.8179C158.694 22.697 158.604 24.8607 158.604 26.3091C158.604 27.5102 161.398 32.8621 166.985 42.3649C168.464 39.892 170.068 37.057 171.798 33.8601C174.304 29.2324 175.556 26.5122 175.556 25.6997C175.556 24.322 175.511 22.2643 175.421 19.5265C175.331 16.7887 175.286 14.7398 175.286 13.3797C175.286 13.0265 175.484 12.8498 175.881 12.8498C176.223 12.8498 176.728 12.8764 177.395 12.9293C178.061 12.9823 178.557 13.0089 178.881 13.0089C179.206 13.0089 179.693 12.9823 180.342 12.9293C181.009 12.8764 181.505 12.8498 181.828 12.8498C182.225 12.8498 182.45 13.0177 182.505 13.3533C182.487 13.2296 182.477 13.5652 182.477 14.3601C182.477 15.6671 182.495 17.6277 182.532 20.2418C182.568 22.8383 182.586 24.7901 182.586 26.0971ZM222.79 31.4226C222.79 36.6685 221.078 41.1814 217.654 44.9612C214.085 48.8824 209.65 50.8431 204.351 50.8431C199.034 50.8431 194.6 48.8913 191.049 44.9878C187.623 41.2255 185.911 36.7038 185.911 31.4226C185.911 26.1943 187.642 21.6814 191.102 17.8839C194.671 13.945 199.087 11.9755 204.351 11.9755C209.632 11.9755 214.057 13.945 217.627 17.8839C221.069 21.6637 222.79 26.1766 222.79 31.4226ZM216.274 31.3431C216.274 27.8811 215.175 24.8695 212.975 22.3084C210.669 19.5883 207.776 18.2283 204.297 18.2283C200.854 18.2283 197.988 19.606 195.699 22.3614C193.536 24.9402 192.455 27.9606 192.455 31.4226C192.455 34.8668 193.536 37.8784 195.699 40.4572C197.988 43.2127 200.854 44.5904 204.297 44.5904C207.794 44.5904 210.696 43.2127 213.003 40.4572C215.184 37.8784 216.274 34.8404 216.274 31.3431ZM252.748 44.2725C252.748 46.7452 252.613 48.5027 252.342 49.5448C252.216 50.0571 251.901 50.3132 251.396 50.3132C250.062 50.3132 248.062 50.2337 245.393 50.0747C242.726 49.9334 240.725 49.8628 239.392 49.8628C238.129 49.8628 236.246 49.8893 233.74 49.9422C231.235 49.9953 229.352 50.0217 228.09 50.0217C227.639 50.0217 227.414 49.801 227.414 49.3594C227.414 47.4341 227.477 44.5285 227.603 40.6427C227.747 36.7568 227.82 33.8424 227.82 31.8995C227.82 29.8505 227.72 26.786 227.522 22.7058C227.342 18.608 227.251 15.5346 227.251 13.4857C227.251 13.0971 227.477 12.9029 227.928 12.9029C228.252 12.9029 228.748 12.9293 229.414 12.9823C230.081 13.0353 230.586 13.0618 230.928 13.0618C231.254 13.0618 231.758 13.0353 232.442 12.9823C233.128 12.9293 233.633 12.9029 233.956 12.9029C234.389 12.9029 234.605 13.0707 234.605 13.4063C234.605 15.2785 234.534 18.0958 234.389 21.858C234.245 25.6203 234.173 28.4463 234.173 30.3362C234.173 31.2548 234.173 32.6501 234.173 34.5225C234.155 36.3947 234.146 37.7901 234.146 38.7085C234.146 42.6297 234.309 44.5904 234.633 44.5904C241.284 44.5904 246.304 44.4313 249.693 44.1134C249.855 44.0958 250.27 44.034 250.937 43.928C251.477 43.822 251.892 43.769 252.18 43.769C252.558 43.769 252.748 43.9368 252.748 44.2725ZM289.005 48.7235C289.041 49.1121 288.816 49.3063 288.329 49.3063C288.059 49.3063 287.4 49.0591 286.355 48.5645C285.328 48.0523 284.67 47.6902 284.382 47.4783C281.065 49.6862 277.136 50.79 272.593 50.79C267.294 50.79 262.932 48.8472 259.507 44.9612C256.263 41.2873 254.641 36.8098 254.641 31.5285C254.641 26.1236 256.235 21.5842 259.426 17.9103C262.797 14.0245 267.186 12.0815 272.593 12.0815C275.369 12.0815 278.036 12.7262 280.597 14.0156C283.174 15.2873 285.229 17.036 286.761 19.2616C286.996 19.5972 287.112 19.8533 287.112 20.0299C287.112 20.2772 286.463 21.0985 285.166 22.4938C283.886 23.8716 283.147 24.5605 282.949 24.5605C282.805 24.5605 282.254 24.0217 281.299 22.9443C280.146 21.6372 279.046 20.6393 278.001 19.9504C276.361 18.8729 274.648 18.3342 272.863 18.3342C269.457 18.3342 266.663 19.7296 264.482 22.5204C262.499 25.0639 261.508 28.0666 261.508 31.5285C261.508 34.9022 262.526 37.8872 264.564 40.4837C266.78 43.2921 269.565 44.6964 272.918 44.6964C276.216 44.6964 279.244 43.8132 282.002 42.0469C281.966 41.5699 281.813 39.892 281.542 37.0129C281.326 34.964 281.219 33.2948 281.219 32.0054C281.219 31.7051 281.417 31.5551 281.813 31.5551C282.156 31.5551 282.67 31.5815 283.354 31.6345C284.039 31.6699 284.553 31.6875 284.896 31.6875C285.237 31.6875 285.761 31.6699 286.463 31.6345C287.166 31.5992 287.689 31.5815 288.031 31.5815C288.41 31.5815 288.6 31.8641 288.6 32.4293C288.6 33.0476 288.573 33.9837 288.518 35.2378C288.482 36.4742 288.464 37.4015 288.464 38.0197C288.464 40.5632 288.635 44.0074 288.978 48.3525L289.005 48.7235ZM326.722 49.7038C326.722 49.9158 326.506 50.0217 326.073 50.0217C325.73 50.0217 325.226 49.9953 324.559 49.9422C323.91 49.8893 323.414 49.8628 323.072 49.8628C322.73 49.8628 322.216 49.8893 321.531 49.9422C320.846 49.9953 320.332 50.0217 319.99 50.0217C319.485 50.0217 318.836 48.6882 318.043 46.021C317.268 43.3363 316.475 41.9762 315.664 41.9409C314.997 41.9056 313.258 41.8879 310.446 41.8879H306.173C303.2 41.8879 301.505 41.9056 301.09 41.9409C300.442 41.9938 299.748 43.3539 299.009 46.021C298.288 48.6882 297.729 50.0217 297.332 50.0217H291.249C290.889 50.0217 290.708 49.8981 290.708 49.6508C290.708 49.4742 290.834 49.0768 291.087 48.4585L297.711 30.7072C298.27 29.2765 299.964 25.1522 302.794 18.3342C303.298 17.2038 303.984 15.4993 304.849 13.2208C305.065 12.5496 305.3 12.214 305.551 12.214C305.894 12.214 306.399 12.2581 307.065 12.3465C307.733 12.4348 308.238 12.479 308.58 12.479C308.905 12.479 309.391 12.4348 310.04 12.3465C310.707 12.2405 311.193 12.1875 311.5 12.1875C311.662 12.1875 311.887 12.5143 312.176 13.1678C312.609 14.1569 314.745 19.4824 318.584 29.144C324.009 42.7269 326.722 49.5802 326.722 49.7038ZM314.123 35.0788C314.123 34.5665 313.311 32.2704 311.689 28.1902C310.121 24.2337 309.012 21.6372 308.363 20.4008C304.633 29.7269 302.767 34.6107 302.767 35.0524C302.767 35.6529 303.452 36.0062 304.822 36.1121C304.894 36.1298 305.777 36.1386 307.471 36.1386H310.256C312.834 36.1386 314.123 35.7853 314.123 35.0788Z" fill="#EDEFF6"/>
<path d="M121.993 47.4783C131.549 47.4783 139.297 39.8866 139.297 30.5217C139.297 21.1569 131.549 13.5652 121.993 13.5652C112.436 13.5652 104.689 21.1569 104.689 30.5217C104.689 39.8866 112.436 47.4783 121.993 47.4783Z" fill="url(#paint0_linear_574_54)"/>
<defs>
<linearGradient id="paint0_linear_574_54" x1="104.851" y1="30.3333" x2="139.802" y2="30.3333" gradientUnits="userSpaceOnUse">
<stop offset="0.015625" stop-color="#FF8D30"/>
<stop offset="0.9998" stop-color="#FFD748"/>
<stop offset="0.9999" stop-color="#F8C109" stop-opacity="0.510417"/>
<stop offset="0.9999" stop-color="#FFD748" stop-opacity="0.510417"/>
<stop offset="1" stop-color="#F8C208" stop-opacity="0.5"/>
</linearGradient>
</defs>
</svg>
