<svg width="478" height="102" viewBox="0 0 478 102" fill="none" xmlns="http://www.w3.org/2000/svg">
<path d="M9.51144 26.22C8.16916 25.4033 7.72418 23.655 8.59471 22.3469C13.9718 14.2676 21.534 7.91386 30.3944 4.07257C40.1148 -0.141548 50.898 -1.11518 61.1963 1.2914C71.4946 3.69799 80.7785 9.36107 87.7157 17.4679C94.6528 25.5747 98.8865 35.7084 99.8091 46.4146C100.732 57.1208 98.2957 67.849 92.8508 77.0596C87.4059 86.2702 79.2321 93.4895 69.5024 97.6814C59.7727 101.873 48.9874 102.822 38.6945 100.392C29.3156 98.1781 20.7849 93.262 14.109 86.2613C13.0231 85.1225 13.1575 83.3213 14.338 82.2809C15.5469 81.2156 17.3881 81.3552 18.511 82.5107C24.3783 88.5484 31.8203 92.7916 39.989 94.7201C49.1034 96.8719 58.6537 96.0315 67.2693 92.3196C75.8849 88.6076 83.1228 82.215 87.9442 74.059C92.7656 65.9031 94.9227 56.4033 94.1057 46.923C93.2888 37.4427 89.5399 28.4693 83.3971 21.2908C77.2543 14.1123 69.0334 9.09763 59.9143 6.9666C50.7952 4.83558 41.2467 5.69772 32.6393 9.42931C24.9184 12.7766 18.3107 18.2784 13.5647 25.2707C12.6634 26.5985 10.8824 27.0541 9.51144 26.22Z" fill="url(#paint0_linear_913_41)"/>
<path fill-rule="evenodd" clip-rule="evenodd" d="M11.0489 37.1267C9.53349 37.2025 8.36649 38.4924 8.44229 40.0078C8.51809 41.5231 9.80799 42.6901 11.3234 42.6143L27.6322 41.7986C26.3779 42.2582 25.5307 43.5103 25.6425 44.907C25.777 46.5867 27.2477 47.8394 28.9274 47.705L34.8252 47.2329L21.7281 50.4487C20.077 50.854 19.0672 52.5211 19.4726 54.1722C19.8455 55.6909 21.2878 56.6705 22.8072 56.4974L22.7129 56.5207H36.0647L36.0615 56.6329L6.29095 60.9346C4.48116 61.1961 3.22602 62.8752 3.48752 64.685C3.74903 66.4948 5.42815 67.75 7.23795 67.4885L71.9809 58.1334C73.4333 57.9236 74.5284 56.8008 74.7692 55.4302C74.8161 55.2183 74.8437 54.9989 74.8502 54.774C74.9031 52.9197 73.4428 51.3736 71.5885 51.3207L48.6935 50.6673L68.7014 46.1466C70.5912 45.7196 71.7781 43.8428 71.3539 41.9523L71.3482 41.9275C71.3799 41.7066 71.3878 41.4789 71.3692 41.2471C71.2348 39.5674 69.7641 38.3147 68.0844 38.4491L57.427 39.3021C57.7922 38.8091 57.9954 38.1913 57.9623 37.5307C57.8865 36.0153 56.5966 34.8483 55.0813 34.9241L11.0489 37.1267Z" fill="url(#paint1_linear_913_41)"/>
<path d="M66.1172 13.431H51.2821C51.2821 13.431 51.7094 18.1929 51.2821 20.0855C50.8547 21.978 50.2774 22.5413 49.6337 24.1148H47.9854V30.4029H52.381V27.3504H63.7363V30.4029H68.0098V24.1148H66.1172V13.431Z" fill="#FF8D30"/>
<path d="M60.928 16.4835H56.4713C56.4713 16.4835 56.5324 18.4982 56.2271 20.0244C55.9219 21.5507 55.5946 22.3686 55.1893 23.8706H60.928V16.4835Z" fill="white"/>
<path d="M30.2808 17.5996V13.431H46.8864V17.5996H41.3717V30.4029H35.9182V17.5996H30.2808Z" fill="#FF8D30"/>
<path d="M42.3687 72.1611H46.3956C47.2319 72.1611 47.9098 72.8391 47.9098 73.6754C47.9098 74.5117 47.2319 75.1897 46.3956 75.1897H42.3687V72.1611Z" fill="#FF8D30"/>
<path d="M42.3687 75.1897H46.386C47.4042 75.1897 48.2295 76.015 48.2295 77.0332C48.2295 78.0513 47.4042 78.8766 46.386 78.8766H42.3687V75.1897Z" fill="#FF8D30"/>
<path d="M44.8107 73.3821H45.7265C45.9625 73.3821 46.1538 73.5735 46.1538 73.8095C46.1538 74.0455 45.9625 74.2368 45.7265 74.2368H44.8107V73.3821Z" fill="white"/>
<path d="M44.8107 76.1904H45.6044C45.9078 76.1904 46.1538 76.4364 46.1538 76.7399C46.1538 77.0433 45.9078 77.2893 45.6044 77.2893H44.8107V76.1904Z" fill="white"/>
<path d="M57.1429 72.1611H50.4376C50.4376 72.1611 50.4781 74.6031 50.4273 76.0073C50.423 76.1267 50.2442 76.3736 50.2442 76.3736L50.061 76.4957L49.5116 76.5567H49.0842L49.0232 78.8766H51.5873L52.4676 77.8388L52.8083 77.2893L53.0828 76.0073V73.8705H54.2124V78.8766L57.1429 79.1819V72.1611Z" fill="#FF8D30"/>
<path d="M39.1331 72.1611H35.8974L33.3333 78.8766H36.2637L36.63 77.5468H38.4615L38.7057 78.8766H41.6361L39.1331 72.1611Z" fill="#FF8D30"/>
<path d="M37.5458 73.6263L38.3389 75.8241H36.7528L37.5458 73.6263Z" fill="white"/>
<path d="M78.8767 72.1611H76.0073L73.8706 80.8302L76.3126 81.3186L76.6178 79.9145H78.3272L78.6325 81.807L81.3187 82.1733L78.8767 72.1611Z" fill="#FF8D30"/>
<path d="M77.4115 73.7484L78.1517 77.2283H76.6713L77.4115 73.7484Z" fill="white"/>
<path d="M68.315 72.2222H65.5067V79.7924L68.315 80.1587V76.6788L69.8413 80.4639L72.7717 80.7692L70.6349 76.0073L73.0769 72.2222H70.0244L68.315 75.2747V72.2222Z" fill="#FF8D30"/>
<path d="M60.4396 72.1001H57.9365V79.1819H60.0122L62.3321 75.5189V79.4872L64.7741 79.7924V72.1001H62.3321L60.4396 75.5189V72.1001Z" fill="#FF8D30"/>
<path fill-rule="evenodd" clip-rule="evenodd" d="M30.0366 72.1611H27.4725V78.8766L30.0366 78.7545V72.1611ZM31.5019 72.1611H30.0367V76.8009H31.5019C32.7831 76.8009 33.8218 75.7623 33.8218 74.481C33.8218 73.1998 32.7831 72.1611 31.5019 72.1611Z" fill="#FF8D30"/>
<path d="M25.7632 72.1001H19.475C19.475 72.1001 19.6582 75.2137 19.475 76.0684C19.2919 76.9231 18.8645 76.9231 18.8645 76.9231H18.0709V79.6703L20.3908 79.4261V78.4493H24.359V78.9988L26.6789 78.8156V76.9231H25.7632V72.1001Z" fill="#FF8D30"/>
<path d="M23.0769 73.26H21.9621C21.9621 73.26 21.9621 75.5693 21.7232 76.0471C21.4843 76.5249 21.4843 76.485 21.4843 76.485L21.2454 76.923H23.0769V73.26Z" fill="white"/>
<path d="M29.9146 73.8705H31.2577C31.5948 73.8705 31.8682 74.1439 31.8682 74.481C31.8682 74.8182 31.5948 75.0915 31.2577 75.0915H29.9146V73.8705Z" fill="white"/>
<path d="M12.5763 72.1611H9.89014V80.8913L12.5763 80.4029L14.652 76.4346V80.0366L17.2772 79.7313V72.1611H14.652L12.5763 76.1904V72.1611Z" fill="#FF8D30"/>
<path d="M4.0293 82.2344V72.1611H9.09645V74.9084H6.8376V81.6239L4.0293 82.2344Z" fill="#FF8D30"/>
<path d="M145.22 33.4482C144.466 33.4482 143.798 33.5964 143.214 33.8926C142.638 34.1803 142.152 34.5993 141.754 35.1494C141.365 35.6995 141.068 36.3639 140.865 37.1426C140.662 37.9212 140.561 38.7972 140.561 39.7705C140.561 41.0824 140.721 42.2038 141.043 43.1348C141.373 44.0573 141.881 44.764 142.566 45.2549C143.252 45.7373 144.136 45.9785 145.22 45.9785C145.973 45.9785 146.726 45.8939 147.479 45.7246C148.241 45.5553 149.066 45.3141 149.955 45.001V48.3018C149.134 48.6403 148.326 48.8815 147.53 49.0254C146.735 49.1777 145.842 49.2539 144.852 49.2539C142.939 49.2539 141.365 48.8604 140.129 48.0732C138.902 47.2777 137.992 46.1689 137.399 44.7471C136.807 43.3167 136.511 41.6494 136.511 39.7451C136.511 38.3402 136.701 37.0537 137.082 35.8857C137.463 34.7178 138.021 33.7064 138.758 32.8516C139.494 31.9967 140.404 31.3366 141.487 30.8711C142.571 30.4056 143.815 30.1729 145.22 30.1729C146.142 30.1729 147.065 30.2913 147.987 30.5283C148.918 30.7568 149.807 31.0742 150.653 31.4805L149.384 34.6797C148.69 34.3496 147.992 34.0618 147.289 33.8164C146.587 33.571 145.897 33.4482 145.22 33.4482ZM164.605 49H153.916V30.4395H164.605V33.6641H157.852V37.7393H164.136V40.9639H157.852V45.75H164.605V49ZM174.419 30.4395C176.814 30.4395 178.562 30.9557 179.662 31.9883C180.762 33.0124 181.312 34.4258 181.312 36.2285C181.312 37.041 181.19 37.8197 180.944 38.5645C180.699 39.3008 180.297 39.9567 179.738 40.5322C179.188 41.1077 178.452 41.5648 177.529 41.9033C176.607 42.2334 175.468 42.3984 174.114 42.3984H172.426V49H168.49V30.4395H174.419ZM174.216 33.6641H172.426V39.1738H173.721C174.457 39.1738 175.096 39.0765 175.638 38.8818C176.179 38.6872 176.598 38.3825 176.895 37.9678C177.191 37.5531 177.339 37.0199 177.339 36.3682C177.339 35.4541 177.085 34.777 176.577 34.3369C176.069 33.8883 175.282 33.6641 174.216 33.6641ZM184.816 30.4395H190.593C193.064 30.4395 194.935 30.7865 196.204 31.4805C197.474 32.1745 198.108 33.3932 198.108 35.1367C198.108 35.8392 197.994 36.474 197.766 37.041C197.546 37.6081 197.224 38.0736 196.801 38.4375C196.378 38.8014 195.861 39.0384 195.252 39.1484V39.2754C195.87 39.4023 196.428 39.6224 196.928 39.9355C197.427 40.2402 197.825 40.6888 198.121 41.2812C198.426 41.8652 198.578 42.6439 198.578 43.6172C198.578 44.7428 198.303 45.7077 197.753 46.5117C197.203 47.3158 196.416 47.9336 195.392 48.3652C194.376 48.7884 193.166 49 191.761 49H184.816V30.4395ZM188.752 37.79H191.037C192.18 37.79 192.971 37.6123 193.411 37.2568C193.851 36.8929 194.071 36.3597 194.071 35.6572C194.071 34.9463 193.809 34.4385 193.284 34.1338C192.768 33.8206 191.947 33.6641 190.821 33.6641H188.752V37.79ZM188.752 40.9131V45.75H191.316C192.501 45.75 193.326 45.5215 193.792 45.0645C194.257 44.6074 194.49 43.9938 194.49 43.2236C194.49 42.7666 194.389 42.3646 194.186 42.0176C193.982 41.6706 193.64 41.3997 193.157 41.2051C192.683 41.0104 192.027 40.9131 191.189 40.9131H188.752ZM202.285 30.4395H205.827V39.4023C205.827 39.8424 205.819 40.3291 205.802 40.8623C205.793 41.3955 205.776 41.9202 205.751 42.4365C205.734 42.9443 205.717 43.3887 205.7 43.7695C205.683 44.1504 205.666 44.4043 205.649 44.5312H205.726L214.295 30.4395H219.005V49H215.501V40.0879C215.501 39.6139 215.509 39.0977 215.526 38.5391C215.543 37.9805 215.564 37.4388 215.59 36.9141C215.624 36.3893 215.653 35.9365 215.679 35.5557C215.704 35.1663 215.721 34.9082 215.729 34.7812H215.628L207.021 49H202.285V30.4395ZM231.573 33.4482C230.82 33.4482 230.151 33.5964 229.567 33.8926C228.992 34.1803 228.505 34.5993 228.107 35.1494C227.718 35.6995 227.422 36.3639 227.219 37.1426C227.016 37.9212 226.914 38.7972 226.914 39.7705C226.914 41.0824 227.075 42.2038 227.396 43.1348C227.727 44.0573 228.234 44.764 228.92 45.2549C229.605 45.7373 230.49 45.9785 231.573 45.9785C232.326 45.9785 233.08 45.8939 233.833 45.7246C234.595 45.5553 235.42 45.3141 236.309 45.001V48.3018C235.488 48.6403 234.679 48.8815 233.884 49.0254C233.088 49.1777 232.195 49.2539 231.205 49.2539C229.292 49.2539 227.718 48.8604 226.482 48.0732C225.255 47.2777 224.345 46.1689 223.753 44.7471C223.16 43.3167 222.864 41.6494 222.864 39.7451C222.864 38.3402 223.055 37.0537 223.436 35.8857C223.816 34.7178 224.375 33.7064 225.111 32.8516C225.848 31.9967 226.757 31.3366 227.841 30.8711C228.924 30.4056 230.168 30.1729 231.573 30.1729C232.496 30.1729 233.418 30.2913 234.341 30.5283C235.272 30.7568 236.16 31.0742 237.007 31.4805L235.737 34.6797C235.043 34.3496 234.345 34.0618 233.643 33.8164C232.94 33.571 232.25 33.4482 231.573 33.4482ZM247.023 30.4395H250.565V39.4023C250.565 39.8424 250.557 40.3291 250.54 40.8623C250.532 41.3955 250.515 41.9202 250.489 42.4365C250.472 42.9443 250.455 43.3887 250.438 43.7695C250.422 44.1504 250.405 44.4043 250.388 44.5312H250.464L259.033 30.4395H263.743V49H260.239V40.0879C260.239 39.6139 260.248 39.0977 260.265 38.5391C260.282 37.9805 260.303 37.4388 260.328 36.9141C260.362 36.3893 260.392 35.9365 260.417 35.5557C260.442 35.1663 260.459 34.9082 260.468 34.7812H260.366L251.759 49H247.023V30.4395ZM281.11 30.4395C283.506 30.4395 285.253 30.9557 286.354 31.9883C287.454 33.0124 288.004 34.4258 288.004 36.2285C288.004 37.041 287.881 37.8197 287.636 38.5645C287.39 39.3008 286.988 39.9567 286.43 40.5322C285.88 41.1077 285.143 41.5648 284.221 41.9033C283.298 42.2334 282.16 42.3984 280.806 42.3984H279.117V49H275.182V30.4395H281.11ZM280.907 33.6641H279.117V39.1738H280.412C281.148 39.1738 281.787 39.0765 282.329 38.8818C282.871 38.6872 283.29 38.3825 283.586 37.9678C283.882 37.5531 284.03 37.0199 284.03 36.3682C284.03 35.4541 283.776 34.777 283.269 34.3369C282.761 33.8883 281.974 33.6641 280.907 33.6641ZM302.197 49H291.508V30.4395H302.197V33.6641H295.443V37.7393H301.728V40.9639H295.443V45.75H302.197V49ZM313.94 49L309.472 34.4385H309.357C309.374 34.7855 309.4 35.3102 309.434 36.0127C309.476 36.7067 309.514 37.4473 309.548 38.2344C309.582 39.0215 309.599 39.7324 309.599 40.3672V49H306.082V30.4395H311.439L315.832 44.6328H315.908L320.567 30.4395H325.925V49H322.256V40.2148C322.256 39.6309 322.264 38.958 322.281 38.1963C322.307 37.4346 322.336 36.7109 322.37 36.0254C322.404 35.3314 322.429 34.8109 322.446 34.4639H322.332L317.546 49H313.94ZM347.456 39.6943C347.456 41.1247 347.278 42.4281 346.923 43.6045C346.567 44.7725 346.026 45.7796 345.298 46.626C344.578 47.4723 343.664 48.124 342.556 48.5811C341.447 49.0296 340.135 49.2539 338.62 49.2539C337.105 49.2539 335.793 49.0296 334.685 48.5811C333.576 48.124 332.658 47.4723 331.93 46.626C331.21 45.7796 330.673 44.7682 330.317 43.5918C329.962 42.4154 329.784 41.1077 329.784 39.6689C329.784 37.7477 330.097 36.0762 330.724 34.6543C331.358 33.224 332.332 32.1152 333.644 31.3281C334.955 30.541 336.623 30.1475 338.646 30.1475C340.66 30.1475 342.314 30.541 343.609 31.3281C344.913 32.1152 345.878 33.224 346.504 34.6543C347.139 36.0846 347.456 37.7646 347.456 39.6943ZM333.91 39.6943C333.91 40.9893 334.071 42.1064 334.393 43.0459C334.723 43.9769 335.235 44.6963 335.929 45.2041C336.623 45.7035 337.52 45.9531 338.62 45.9531C339.737 45.9531 340.643 45.7035 341.337 45.2041C342.031 44.6963 342.535 43.9769 342.848 43.0459C343.169 42.1064 343.33 40.9893 343.33 39.6943C343.33 37.7477 342.966 36.2158 342.238 35.0986C341.51 33.9814 340.313 33.4229 338.646 33.4229C337.537 33.4229 336.631 33.6768 335.929 34.1846C335.235 34.6839 334.723 35.4033 334.393 36.3428C334.071 37.2738 333.91 38.391 333.91 39.6943ZM366.512 49H362.589V40.9893H355.238V49H351.303V30.4395H355.238V37.7139H362.589V30.4395H366.512V49ZM378.369 49H374.434V33.7148H369.394V30.4395H383.409V33.7148H378.369V49ZM145.22 68.4482C144.466 68.4482 143.798 68.5964 143.214 68.8926C142.638 69.1803 142.152 69.5993 141.754 70.1494C141.365 70.6995 141.068 71.3639 140.865 72.1426C140.662 72.9212 140.561 73.7972 140.561 74.7705C140.561 76.0824 140.721 77.2038 141.043 78.1348C141.373 79.0573 141.881 79.764 142.566 80.2549C143.252 80.7373 144.136 80.9785 145.22 80.9785C145.973 80.9785 146.726 80.8939 147.479 80.7246C148.241 80.5553 149.066 80.3141 149.955 80.001V83.3018C149.134 83.6403 148.326 83.8815 147.53 84.0254C146.735 84.1777 145.842 84.2539 144.852 84.2539C142.939 84.2539 141.365 83.8604 140.129 83.0732C138.902 82.2777 137.992 81.1689 137.399 79.7471C136.807 78.3167 136.511 76.6494 136.511 74.7451C136.511 73.3402 136.701 72.0537 137.082 70.8857C137.463 69.7178 138.021 68.7064 138.758 67.8516C139.494 66.9967 140.404 66.3366 141.487 65.8711C142.571 65.4056 143.815 65.1729 145.22 65.1729C146.142 65.1729 147.065 65.2913 147.987 65.5283C148.918 65.7568 149.807 66.0742 150.653 66.4805L149.384 69.6797C148.69 69.3496 147.992 69.0618 147.289 68.8164C146.587 68.571 145.897 68.4482 145.22 68.4482ZM153.916 84V65.4395H168.604V84H164.682V68.7148H157.852V84H153.916ZM183.979 84H173.289V65.4395H183.979V68.6641H177.225V72.7393H183.509V75.9639H177.225V80.75H183.979V84ZM205.319 80.877V89.4082H201.523V84H187.863V65.4395H191.799V80.7246H198.629V65.4395H202.552V80.877H205.319ZM208.176 65.4395H211.718V74.4023C211.718 74.8424 211.709 75.3291 211.692 75.8623C211.684 76.3955 211.667 76.9202 211.642 77.4365C211.625 77.9443 211.608 78.3887 211.591 78.7695C211.574 79.1504 211.557 79.4043 211.54 79.5312H211.616L220.186 65.4395H224.896V84H221.392V75.0879C221.392 74.6139 221.4 74.0977 221.417 73.5391C221.434 72.9805 221.455 72.4388 221.48 71.9141C221.514 71.3893 221.544 70.9365 221.569 70.5557C221.595 70.1663 221.612 69.9082 221.62 69.7812H221.519L212.911 84H208.176V65.4395ZM240.942 84L239.597 79.582H232.83L231.484 84H227.244L233.795 65.3633H238.606L245.183 84H240.942ZM238.657 76.2812L237.312 71.9648C237.227 71.6771 237.113 71.3089 236.969 70.8604C236.833 70.4033 236.694 69.9421 236.55 69.4766C236.414 69.0026 236.304 68.5921 236.22 68.2451C236.135 68.5921 236.017 69.0238 235.864 69.54C235.72 70.0479 235.581 70.5303 235.445 70.9873C235.31 71.4443 235.213 71.7702 235.153 71.9648L233.82 76.2812H238.657ZM262.22 84H258.297V68.7148H253.752C253.65 69.5104 253.54 70.3779 253.422 71.3174C253.303 72.2568 253.181 73.2048 253.054 74.1611C252.927 75.1175 252.791 76.0273 252.647 76.8906C252.512 77.7539 252.377 78.5114 252.241 79.1631C252.021 80.2464 251.721 81.1689 251.34 81.9307C250.967 82.6839 250.455 83.2594 249.804 83.6572C249.16 84.055 248.318 84.2539 247.277 84.2539C246.93 84.2539 246.596 84.2285 246.274 84.1777C245.961 84.127 245.669 84.0592 245.398 83.9746V80.75C245.618 80.8262 245.839 80.8896 246.059 80.9404C246.279 80.9827 246.52 81.0039 246.782 81.0039C247.121 81.0039 247.4 80.8939 247.62 80.6738C247.849 80.4453 248.052 80.0602 248.229 79.5186C248.407 78.9684 248.585 78.2109 248.763 77.2461C248.839 76.8229 248.94 76.2262 249.067 75.4561C249.194 74.6774 249.338 73.7676 249.499 72.7266C249.66 71.6771 249.825 70.5345 249.994 69.2988C250.172 68.0632 250.341 66.7767 250.502 65.4395H262.22V84ZM266.904 84V65.4395H270.84V72.5615H272.389C274.132 72.5615 275.562 72.8027 276.68 73.2852C277.805 73.7676 278.635 74.4362 279.168 75.291C279.71 76.1374 279.98 77.1064 279.98 78.1982C279.98 80.0348 279.367 81.4609 278.14 82.4766C276.921 83.4922 274.979 84 272.312 84H266.904ZM270.84 80.7754H272.16C273.354 80.7754 274.293 80.585 274.979 80.2041C275.664 79.8148 276.007 79.1462 276.007 78.1982C276.007 77.5381 275.838 77.0345 275.499 76.6875C275.169 76.3405 274.691 76.1035 274.064 75.9766C273.447 75.8496 272.706 75.7861 271.843 75.7861H270.84V80.7754ZM298.719 84H294.796V75.9893H287.445V84H283.51V65.4395H287.445V72.7139H294.796V65.4395H298.719V84ZM320.263 74.6943C320.263 76.1247 320.085 77.4281 319.729 78.6045C319.374 79.7725 318.832 80.7796 318.104 81.626C317.385 82.4723 316.471 83.124 315.362 83.5811C314.254 84.0296 312.942 84.2539 311.427 84.2539C309.912 84.2539 308.6 84.0296 307.491 83.5811C306.382 83.124 305.464 82.4723 304.736 81.626C304.017 80.7796 303.479 79.7682 303.124 78.5918C302.769 77.4154 302.591 76.1077 302.591 74.6689C302.591 72.7477 302.904 71.0762 303.53 69.6543C304.165 68.224 305.138 67.1152 306.45 66.3281C307.762 65.541 309.429 65.1475 311.452 65.1475C313.466 65.1475 315.121 65.541 316.416 66.3281C317.719 67.1152 318.684 68.224 319.311 69.6543C319.945 71.0846 320.263 72.7646 320.263 74.6943ZM306.717 74.6943C306.717 75.9893 306.878 77.1064 307.199 78.0459C307.529 78.9769 308.041 79.6963 308.735 80.2041C309.429 80.7035 310.326 80.9531 311.427 80.9531C312.544 80.9531 313.45 80.7035 314.144 80.2041C314.838 79.6963 315.341 78.9769 315.654 78.0459C315.976 77.1064 316.137 75.9893 316.137 74.6943C316.137 72.7477 315.773 71.2158 315.045 70.0986C314.317 68.9814 313.119 68.4229 311.452 68.4229C310.343 68.4229 309.438 68.6768 308.735 69.1846C308.041 69.6839 307.529 70.4033 307.199 71.3428C306.878 72.2738 306.717 73.391 306.717 74.6943ZM324.109 65.4395H327.651V74.4023C327.651 74.8424 327.643 75.3291 327.626 75.8623C327.618 76.3955 327.601 76.9202 327.575 77.4365C327.558 77.9443 327.541 78.3887 327.524 78.7695C327.507 79.1504 327.491 79.4043 327.474 79.5312H327.55L336.119 65.4395H340.829V84H337.325V75.0879C337.325 74.6139 337.334 74.0977 337.351 73.5391C337.368 72.9805 337.389 72.4388 337.414 71.9141C337.448 71.3893 337.478 70.9365 337.503 70.5557C337.528 70.1663 337.545 69.9082 337.554 69.7812H337.452L328.845 84H324.109V65.4395ZM339.064 59.333C338.971 60.2301 338.717 61.0215 338.303 61.707C337.888 62.3926 337.241 62.9258 336.36 63.3066C335.48 63.6875 334.295 63.8779 332.806 63.8779C331.274 63.8779 330.08 63.696 329.226 63.332C328.371 62.9596 327.761 62.4349 327.397 61.7578C327.034 61.0723 326.813 60.264 326.737 59.333H330.203C330.279 60.2894 330.521 60.9242 330.927 61.2373C331.333 61.542 331.985 61.6943 332.882 61.6943C333.627 61.6943 334.236 61.5251 334.71 61.1865C335.184 60.848 335.467 60.2301 335.561 59.333H339.064ZM359.428 84H355.492V68.7148H350.452V65.4395H364.468V68.7148H359.428V84ZM378.014 84H367.324V65.4395H378.014V68.6641H371.26V72.7393H377.544V75.9639H371.26V80.75H378.014V84ZM396.904 84H392.41L388.094 76.9795L383.777 84H379.562L385.72 74.4277L379.956 65.4395H384.298L388.297 72.1172L392.22 65.4395H396.46L390.633 74.6436L396.904 84ZM414.449 84H410.526V75.9893H403.176V84H399.24V65.4395H403.176V72.7139H410.526V65.4395H414.449V84ZM419.146 65.4395H422.688V74.4023C422.688 74.8424 422.68 75.3291 422.663 75.8623C422.655 76.3955 422.638 76.9202 422.612 77.4365C422.595 77.9443 422.578 78.3887 422.562 78.7695C422.545 79.1504 422.528 79.4043 422.511 79.5312H422.587L431.156 65.4395H435.866V84H432.362V75.0879C432.362 74.6139 432.371 74.0977 432.388 73.5391C432.405 72.9805 432.426 72.4388 432.451 71.9141C432.485 71.3893 432.515 70.9365 432.54 70.5557C432.565 70.1663 432.582 69.9082 432.591 69.7812H432.489L423.882 84H419.146V65.4395ZM455.684 84H451.215L444.486 74.5928V84H440.551V65.4395H444.486V74.4277L451.139 65.4395H455.328L448.562 74.3516L455.684 84ZM458.02 65.4395H461.562V74.4023C461.562 74.8424 461.553 75.3291 461.536 75.8623C461.528 76.3955 461.511 76.9202 461.485 77.4365C461.468 77.9443 461.451 78.3887 461.435 78.7695C461.418 79.1504 461.401 79.4043 461.384 79.5312H461.46L470.029 65.4395H474.739V84H471.235V75.0879C471.235 74.6139 471.244 74.0977 471.261 73.5391C471.278 72.9805 471.299 72.4388 471.324 71.9141C471.358 71.3893 471.388 70.9365 471.413 70.5557C471.438 70.1663 471.455 69.9082 471.464 69.7812H471.362L462.755 84H458.02V65.4395Z" fill="url(#paint2_linear_913_41)"/>
<defs>
<linearGradient id="paint0_linear_913_41" x1="12.3909" y1="53.3577" x2="102.989" y2="48.2295" gradientUnits="userSpaceOnUse">
<stop stop-color="#FFD74B"/>
<stop offset="1" stop-color="#FF8D30"/>
</linearGradient>
<linearGradient id="paint1_linear_913_41" x1="6.382" y1="52.9115" x2="74.845" y2="45.4021" gradientUnits="userSpaceOnUse">
<stop stop-color="#FFD74B"/>
<stop offset="1" stop-color="#FF9232"/>
</linearGradient>
<linearGradient id="paint2_linear_913_41" x1="135" y1="56" x2="502.5" y2="56" gradientUnits="userSpaceOnUse">
<stop stop-color="#FF8D30"/>
<stop offset="1" stop-color="#FFBD30"/>
</linearGradient>
</defs>
</svg>
