<svg width="127" height="60" viewBox="0 0 127 60" fill="none" xmlns="http://www.w3.org/2000/svg">
<circle cx="66" cy="20" r="20" fill="#192144"/>
<g clip-path="url(#clip0_955_8)">
<path d="M66 10.667C62.1349 10.667 59 13.8018 59 17.667C59 22.1633 62.3809 24.1291 63.1282 25.026C64.9231 27.1798 65.0245 29.3337 66 29.3337C66.9755 29.3337 67.0769 27.1798 68.8718 25.026C69.6192 24.1291 73 22.1633 73 17.667C73 13.8018 69.8652 10.667 66 10.667ZM66 22.3337C63.4229 22.3337 61.3334 20.2442 61.3334 17.667C61.3334 15.0898 63.4229 13.0003 66 13.0003C68.5772 13.0003 70.6667 15.0898 70.6667 17.667C70.6667 20.2442 68.5772 22.3337 66 22.3337ZM66 15.3337C64.712 15.3337 63.6667 16.379 63.6667 17.667C63.6667 18.955 64.712 20.0003 66 20.0003C67.288 20.0003 68.3334 18.955 68.3334 17.667C68.3334 16.379 67.288 15.3337 66 15.3337Z" fill="#FFD74B"/>
<ellipse cx="66" cy="17.6669" rx="0.777779" ry="0.777777" fill="#161C35"/>
</g>
<path d="M0.497159 48.593V46.8182H8.85938V48.593H5.74219V57H3.61435V48.593H0.497159ZM9.68466 59.456V55.2848H10.3757C10.611 55.1158 10.8265 54.8771 11.022 54.5689C11.2176 54.2573 11.3849 53.8281 11.5241 53.2812C11.6634 52.7311 11.7628 52.0118 11.8224 51.1236L12.1108 46.8182H18.8473V55.2848H19.9609V59.446H17.8928V57H11.7528V59.456H9.68466ZM12.8615 55.2848H16.7791V48.593H14.0497L13.8906 51.1236C13.8475 51.7964 13.7763 52.393 13.6768 52.9134C13.5807 53.4337 13.4631 53.8894 13.3239 54.2805C13.188 54.6683 13.0339 55.0031 12.8615 55.2848ZM31.2663 46.8182V48.593H26.6626V57H24.5099V46.8182H31.2663ZM33.8354 54.206L36.5847 49.3636H38.6728V57H36.6543V52.1428L33.915 57H31.812V49.3636H33.8354V54.206ZM39.774 59.2372V55.3196H40.3606C40.5297 55.2135 40.6655 55.0445 40.7683 54.8125C40.8743 54.5805 40.9605 54.3071 41.0268 53.9922C41.0964 53.6773 41.1494 53.3376 41.1859 52.973C41.2257 52.6051 41.2605 52.2339 41.2903 51.8594L41.4892 49.3636H47.3457V55.3196H48.5289V59.2372H46.5105V57H41.8422V59.2372H39.774ZM42.4686 55.3196H45.3471V50.9943H43.2889L43.2093 51.8594C43.153 52.6747 43.0718 53.3674 42.9657 53.9375C42.8597 54.5043 42.694 54.965 42.4686 55.3196ZM49.7631 59.8636V49.3636H51.8512V50.6463H51.9457C52.0385 50.4408 52.1727 50.232 52.3484 50.0199C52.5273 49.8045 52.7594 49.6255 53.0444 49.483C53.3327 49.3371 53.6907 49.2642 54.1183 49.2642C54.6751 49.2642 55.1888 49.41 55.6594 49.7017C56.1301 49.9901 56.5063 50.4259 56.788 51.0092C57.0697 51.5893 57.2106 52.3168 57.2106 53.1918C57.2106 54.0436 57.073 54.7628 56.7979 55.3494C56.5262 55.9328 56.1549 56.3752 55.6843 56.6768C55.217 56.9751 54.6933 57.1243 54.1133 57.1243C53.7023 57.1243 53.3526 57.0563 53.0643 56.9205C52.7792 56.7846 52.5456 56.6139 52.3633 56.4084C52.181 56.1996 52.0418 55.9891 51.9457 55.777H51.881V59.8636H49.7631ZM51.8363 53.1818C51.8363 53.6359 51.8993 54.032 52.0252 54.37C52.1512 54.7081 52.3335 54.9716 52.5721 55.1605C52.8107 55.3461 53.1007 55.4389 53.4421 55.4389C53.7868 55.4389 54.0785 55.3445 54.3171 55.1555C54.5558 54.9633 54.7364 54.6982 54.859 54.3601C54.985 54.0187 55.0479 53.6259 55.0479 53.1818C55.0479 52.741 54.9866 52.3532 54.864 52.0185C54.7414 51.6837 54.5607 51.4219 54.3221 51.233C54.0835 51.044 53.7901 50.9496 53.4421 50.9496C53.0974 50.9496 52.8058 51.0407 52.5671 51.223C52.3318 51.4053 52.1512 51.6638 52.0252 51.9986C51.8993 52.3333 51.8363 52.7277 51.8363 53.1818ZM60.8001 57.1442C60.3129 57.1442 59.8787 57.0597 59.4975 56.8906C59.1164 56.7183 58.8147 56.4647 58.5927 56.13C58.3739 55.7919 58.2646 55.371 58.2646 54.8672C58.2646 54.4429 58.3424 54.0866 58.4982 53.7983C58.654 53.5099 58.8661 53.2779 59.1346 53.1023C59.4031 52.9266 59.708 52.794 60.0494 52.7045C60.3941 52.6151 60.7553 52.5521 61.1332 52.5156C61.5773 52.4692 61.9353 52.4261 62.207 52.3864C62.4788 52.3433 62.676 52.2803 62.7987 52.1974C62.9213 52.1146 62.9826 51.992 62.9826 51.8295V51.7997C62.9826 51.4848 62.8832 51.2412 62.6843 51.0689C62.4888 50.8965 62.2103 50.8104 61.8491 50.8104C61.4679 50.8104 61.1647 50.8949 60.9393 51.0639C60.7139 51.2296 60.5647 51.4384 60.4918 51.6903L58.533 51.5312C58.6325 51.0672 58.828 50.6662 59.1197 50.3281C59.4113 49.9867 59.7875 49.7249 60.2482 49.5426C60.7122 49.357 61.2492 49.2642 61.859 49.2642C62.2833 49.2642 62.6893 49.3139 63.0771 49.4134C63.4682 49.5128 63.8145 49.6669 64.1161 49.8757C64.421 50.0845 64.6613 50.353 64.837 50.6811C65.0127 51.0059 65.1005 51.3954 65.1005 51.8494V57H63.092V55.9411H63.0323C62.9097 56.1797 62.7456 56.3902 62.5401 56.5724C62.3346 56.7514 62.0877 56.8923 61.7994 56.995C61.511 57.0945 61.1779 57.1442 60.8001 57.1442ZM61.4066 55.6825C61.7182 55.6825 61.9933 55.6212 62.2319 55.4986C62.4705 55.3726 62.6578 55.2036 62.7937 54.9915C62.9296 54.7794 62.9975 54.5391 62.9975 54.2706V53.4602C62.9312 53.5033 62.8401 53.5431 62.7241 53.5795C62.6114 53.6127 62.4838 53.6442 62.3413 53.674C62.1987 53.7005 62.0562 53.7254 61.9137 53.7486C61.7712 53.7685 61.6419 53.7867 61.5259 53.8033C61.2773 53.8397 61.0603 53.8977 60.8746 53.9773C60.689 54.0568 60.5449 54.1645 60.4421 54.3004C60.3394 54.433 60.288 54.5987 60.288 54.7976C60.288 55.0859 60.3924 55.3063 60.6012 55.4588C60.8133 55.608 61.0818 55.6825 61.4066 55.6825ZM66.7436 57V49.3636H70C70.9413 49.3636 71.6854 49.5426 72.2322 49.9006C72.7791 50.2585 73.0526 50.7673 73.0526 51.4268C73.0526 51.8411 72.8984 52.1858 72.5902 52.4609C72.282 52.736 71.8544 52.9216 71.3075 53.0178C71.7649 53.0509 72.1544 53.1553 72.4759 53.331C72.8007 53.5033 73.0476 53.727 73.2166 54.0021C73.389 54.2772 73.4751 54.5821 73.4751 54.9169C73.4751 55.3511 73.3591 55.724 73.1271 56.0355C72.8984 56.3471 72.562 56.5857 72.1179 56.7514C71.6771 56.9171 71.1385 57 70.5021 57H66.7436ZM68.7173 55.4141H70.5021C70.7971 55.4141 71.0275 55.3445 71.1932 55.2053C71.3622 55.0627 71.4467 54.8688 71.4467 54.6236C71.4467 54.3518 71.3622 54.138 71.1932 53.9822C71.0275 53.8265 70.7971 53.7486 70.5021 53.7486H68.7173V55.4141ZM68.7173 52.5057H70.0447C70.2569 52.5057 70.4375 52.4759 70.5866 52.4162C70.7391 52.3532 70.8551 52.2637 70.9347 52.1477C71.0175 52.0317 71.0589 51.8942 71.0589 51.7351C71.0589 51.4998 70.9645 51.3158 70.7756 51.1832C70.5866 51.0507 70.3281 50.9844 70 50.9844H68.7173V52.5057ZM74.3626 57L74.3526 55.3196H74.6062C74.7852 55.3196 74.9393 55.2765 75.0685 55.1903C75.2011 55.1009 75.3105 54.9567 75.3967 54.7578C75.4828 54.5589 75.5508 54.2955 75.6005 53.9673C75.6502 53.6359 75.6834 53.2282 75.6999 52.7443L75.8242 49.3636H81.631V57H79.6126V51.0291H77.7283L77.609 53.3608C77.5792 54.0005 77.5013 54.5507 77.3754 55.0114C77.2527 55.4721 77.082 55.8499 76.8633 56.1449C76.6445 56.4366 76.381 56.652 76.0728 56.7912C75.7646 56.9304 75.4066 57 74.9989 57H74.3626ZM85.2963 54.206L88.0456 49.3636H90.1337V57H88.1152V52.1428L85.3759 57H83.2729V49.3636H85.2963V54.206ZM91.8315 57V49.3636H93.9494V52.3267H94.546L96.6241 49.3636H99.1099L96.4103 53.152L99.1397 57H96.6241L94.7399 54.2905H93.9494V57H91.8315ZM102.212 57.1442C101.725 57.1442 101.291 57.0597 100.91 56.8906C100.528 56.7183 100.227 56.4647 100.005 56.13C99.786 55.7919 99.6767 55.371 99.6767 54.8672C99.6767 54.4429 99.7546 54.0866 99.9103 53.7983C100.066 53.5099 100.278 53.2779 100.547 53.1023C100.815 52.9266 101.12 52.794 101.461 52.7045C101.806 52.6151 102.167 52.5521 102.545 52.5156C102.989 52.4692 103.347 52.4261 103.619 52.3864C103.891 52.3433 104.088 52.2803 104.211 52.1974C104.333 52.1146 104.395 51.992 104.395 51.8295V51.7997C104.395 51.4848 104.295 51.2412 104.096 51.0689C103.901 50.8965 103.622 50.8104 103.261 50.8104C102.88 50.8104 102.577 50.8949 102.351 51.0639C102.126 51.2296 101.977 51.4384 101.904 51.6903L99.9451 51.5312C100.045 51.0672 100.24 50.6662 100.532 50.3281C100.823 49.9867 101.2 49.7249 101.66 49.5426C102.124 49.357 102.661 49.2642 103.271 49.2642C103.695 49.2642 104.101 49.3139 104.489 49.4134C104.88 49.5128 105.227 49.6669 105.528 49.8757C105.833 50.0845 106.073 50.353 106.249 50.6811C106.425 51.0059 106.513 51.3954 106.513 51.8494V57H104.504V55.9411H104.444C104.322 56.1797 104.158 56.3902 103.952 56.5724C103.747 56.7514 103.5 56.8923 103.211 56.995C102.923 57.0945 102.59 57.1442 102.212 57.1442ZM102.819 55.6825C103.13 55.6825 103.405 55.6212 103.644 55.4986C103.883 55.3726 104.07 55.2036 104.206 54.9915C104.342 54.7794 104.41 54.5391 104.41 54.2706V53.4602C104.343 53.5033 104.252 53.5431 104.136 53.5795C104.023 53.6127 103.896 53.6442 103.753 53.674C103.611 53.7005 103.468 53.7254 103.326 53.7486C103.183 53.7685 103.054 53.7867 102.938 53.8033C102.689 53.8397 102.472 53.8977 102.287 53.9773C102.101 54.0568 101.957 54.1645 101.854 54.3004C101.751 54.433 101.7 54.5987 101.7 54.7976C101.7 55.0859 101.805 55.3063 102.013 55.4588C102.225 55.608 102.494 55.6825 102.819 55.6825ZM112.914 51.9787V53.6591H108.27V51.9787H112.914ZM114.758 46.8182H117.413L120.217 53.6591H120.336L123.14 46.8182H125.795V57H123.707V50.3729H123.622L120.987 56.9503H119.566L116.931 50.348H116.846V57H114.758V46.8182Z" fill="#FF8D30"/>
<defs>
<clipPath id="clip0_955_8">
<rect width="18.6667" height="18.6667" fill="white" transform="translate(56.6667 10.667)"/>
</clipPath>
</defs>
</svg>
