<svg width="40" height="40" viewBox="0 0 40 40" fill="none" xmlns="http://www.w3.org/2000/svg">
<circle cx="20" cy="20" r="20" fill="#192144"/>
<g clip-path="url(#clip0_572_4)">
<path d="M20 10.667C16.1348 10.667 13 13.8018 13 17.667C13 22.1633 16.3809 24.1291 17.1282 25.026C18.9231 27.1798 19.0245 29.3337 20 29.3337C20.9755 29.3337 21.0769 27.1798 22.8718 25.026C23.6191 24.1291 27 22.1633 27 17.667C27 13.8018 23.8652 10.667 20 10.667ZM20 22.3337C17.4228 22.3337 15.3333 20.2442 15.3333 17.667C15.3333 15.0898 17.4228 13.0003 20 13.0003C22.5772 13.0003 24.6667 15.0898 24.6667 17.667C24.6667 20.2442 22.5772 22.3337 20 22.3337ZM20 15.3337C18.712 15.3337 17.6667 16.379 17.6667 17.667C17.6667 18.955 18.712 20.0003 20 20.0003C21.288 20.0003 22.3333 18.955 22.3333 17.667C22.3333 16.379 21.288 15.3337 20 15.3337Z" fill="#FFD74B"/>
<ellipse cx="20" cy="17.6669" rx="0.777779" ry="0.777777" fill="#161C35"/>
</g>
<defs>
<clipPath id="clip0_572_4">
<rect width="18.6667" height="18.6667" fill="white" transform="translate(10.6667 10.667)"/>
</clipPath>
</defs>
</svg>
