<svg width="188" height="68" viewBox="0 0 188 68" fill="none" xmlns="http://www.w3.org/2000/svg">
<ellipse cx="84.5197" cy="20" rx="20.1575" ry="20" fill="#192144"/>
<g clip-path="url(#clip0_969_4)">
<path d="M84.5197 10.667C80.6241 10.667 77.4646 13.8018 77.4646 17.667C77.4646 22.1633 80.8721 24.1291 81.6253 25.026C83.4343 27.1798 83.5365 29.3337 84.5197 29.3337C85.5029 29.3337 85.6051 27.1798 87.4141 25.026C88.1674 24.1291 91.5748 22.1633 91.5748 17.667C91.5748 13.8018 88.4153 10.667 84.5197 10.667ZM84.5197 22.3337C81.9223 22.3337 79.8163 20.2442 79.8163 17.667C79.8163 15.0898 81.9223 13.0003 84.5197 13.0003C87.1172 13.0003 89.2231 15.0898 89.2231 17.667C89.2231 20.2442 87.1172 22.3337 84.5197 22.3337ZM84.5197 15.3337C83.2216 15.3337 82.168 16.379 82.168 17.667C82.168 18.955 83.2216 20.0003 84.5197 20.0003C85.8179 20.0003 86.8714 18.955 86.8714 17.667C86.8714 16.379 85.8179 15.3337 84.5197 15.3337Z" fill="#FFD74B"/>
<ellipse cx="84.5197" cy="17.6669" rx="0.783903" ry="0.777777" fill="#161C35"/>
</g>
<path d="M0.710227 50.9901V48.4545H12.6562V50.9901H8.20312V63H5.16335V50.9901H0.710227ZM13.8352 66.5085V60.5497H14.8224C15.1586 60.3082 15.4664 59.9673 15.7457 59.527C16.0251 59.0819 16.2642 58.4688 16.4631 57.6875C16.6619 56.9015 16.804 55.8741 16.8892 54.6051L17.3011 48.4545H26.9247V60.5497H28.5156V66.4943H25.5611V63H16.7898V66.5085H13.8352ZM18.3736 60.5497H23.9702V50.9901H20.071L19.8438 54.6051C19.7822 55.5663 19.6804 56.4186 19.5384 57.1619C19.401 57.9053 19.233 58.5563 19.0341 59.1151C18.84 59.669 18.6198 60.1473 18.3736 60.5497ZM44.6662 48.4545V50.9901H38.0895V63H35.0142V48.4545H44.6662ZM48.3363 59.0085L52.2638 52.0909H55.2468V63H52.3633V56.0611L48.4499 63H45.4457V52.0909H48.3363V59.0085ZM56.82 66.196V60.5994H57.658C57.8995 60.4479 58.0936 60.2064 58.2404 59.875C58.3919 59.5436 58.515 59.1529 58.6097 58.7031C58.7092 58.2533 58.7849 57.768 58.837 57.2472C58.8938 56.7216 58.9435 56.1913 58.9862 55.6562L59.2702 52.0909H67.6367V60.5994H69.3271V66.196H66.4435V63H59.7745V66.196H56.82ZM60.6694 60.5994H64.7816V54.4205H61.8413L61.7276 55.6562C61.6471 56.821 61.5311 57.8106 61.3796 58.625C61.2281 59.4347 60.9914 60.0928 60.6694 60.5994ZM71.0902 67.0909V52.0909H74.0732V53.9233H74.2081C74.3407 53.6297 74.5324 53.3314 74.7834 53.0284C75.0391 52.7206 75.3705 52.465 75.7777 52.2614C76.1896 52.053 76.701 51.9489 77.3118 51.9489C78.1072 51.9489 78.8411 52.1572 79.5135 52.5739C80.1858 52.9858 80.7232 53.6084 81.1257 54.4418C81.5282 55.2704 81.7294 56.3097 81.7294 57.5597C81.7294 58.7765 81.5329 59.804 81.1399 60.642C80.7517 61.4754 80.2214 62.1075 79.549 62.5384C78.8814 62.9645 78.1333 63.1776 77.3047 63.1776C76.7176 63.1776 76.218 63.0805 75.8061 62.8864C75.3989 62.6922 75.0651 62.4484 74.8047 62.1548C74.5443 61.8565 74.3454 61.5559 74.2081 61.2528H74.1158V67.0909H71.0902ZM74.0518 57.5455C74.0518 58.1941 74.1418 58.7599 74.3217 59.2429C74.5017 59.7259 74.7621 60.1023 75.103 60.3722C75.4439 60.6373 75.8582 60.7699 76.3459 60.7699C76.8383 60.7699 77.255 60.6349 77.5959 60.3651C77.9368 60.0904 78.1948 59.7116 78.37 59.2287C78.55 58.741 78.6399 58.1799 78.6399 57.5455C78.6399 56.9157 78.5523 56.3617 78.3771 55.8835C78.2019 55.4053 77.9439 55.0312 77.603 54.7614C77.2621 54.4915 76.843 54.3565 76.3459 54.3565C75.8535 54.3565 75.4368 54.4867 75.0959 54.7472C74.7597 55.0076 74.5017 55.3769 74.3217 55.8551C74.1418 56.3333 74.0518 56.8968 74.0518 57.5455ZM86.8572 63.206C86.1612 63.206 85.541 63.0852 84.9964 62.8438C84.4519 62.5975 84.0211 62.2353 83.7038 61.7571C83.3913 61.2741 83.2351 60.6728 83.2351 59.9531C83.2351 59.3471 83.3464 58.8381 83.5689 58.4261C83.7914 58.0142 84.0945 57.6828 84.478 57.4318C84.8615 57.1809 85.2971 56.9915 85.7848 56.8636C86.2772 56.7358 86.7933 56.6458 87.3331 56.5938C87.9676 56.5275 88.4789 56.4659 88.8672 56.4091C89.2554 56.3475 89.5372 56.2576 89.7124 56.1392C89.8875 56.0208 89.9751 55.8456 89.9751 55.6136V55.571C89.9751 55.1212 89.8331 54.7732 89.549 54.527C89.2696 54.2808 88.8719 54.1577 88.3558 54.1577C87.8113 54.1577 87.3781 54.2784 87.0561 54.5199C86.7341 54.7566 86.5211 55.0549 86.4169 55.4148L83.6186 55.1875C83.7607 54.5246 84.04 53.9517 84.4567 53.4688C84.8733 52.9811 85.4107 52.607 86.0689 52.3466C86.7318 52.0814 87.4988 51.9489 88.37 51.9489C88.9761 51.9489 89.5561 52.0199 90.1101 52.1619C90.6688 52.304 91.1636 52.5241 91.5945 52.8224C92.0301 53.1207 92.3733 53.5043 92.6243 53.973C92.8752 54.437 93.0007 54.9934 93.0007 55.642V63H90.1314V61.4872H90.0462C89.871 61.8281 89.6366 62.1288 89.343 62.3892C89.0495 62.6449 88.6967 62.8461 88.2848 62.9929C87.8729 63.1349 87.397 63.206 86.8572 63.206ZM87.7237 61.1179C88.1688 61.1179 88.5618 61.0303 88.9027 60.8551C89.2436 60.6752 89.5111 60.4337 89.7053 60.1307C89.8994 59.8277 89.9964 59.4844 89.9964 59.1009V57.9432C89.9018 58.0047 89.7715 58.0616 89.6058 58.1136C89.4448 58.161 89.2625 58.206 89.0589 58.2486C88.8554 58.2865 88.6518 58.322 88.4482 58.3551C88.2446 58.3835 88.0599 58.4096 87.8942 58.4332C87.5391 58.4853 87.2289 58.5682 86.9638 58.6818C86.6986 58.7955 86.4927 58.9493 86.3459 59.1435C86.1991 59.3329 86.1257 59.5696 86.1257 59.8537C86.1257 60.2656 86.2749 60.5805 86.5732 60.7983C86.8762 61.0114 87.2597 61.1179 87.7237 61.1179ZM95.348 63V52.0909H100C101.345 52.0909 102.408 52.3466 103.189 52.858C103.97 53.3693 104.361 54.0961 104.361 55.0384C104.361 55.6302 104.141 56.1226 103.7 56.5156C103.26 56.9086 102.649 57.1738 101.868 57.3111C102.521 57.3584 103.078 57.5076 103.537 57.7585C104.001 58.0047 104.354 58.3243 104.595 58.7173C104.841 59.1103 104.964 59.5459 104.964 60.0241C104.964 60.6444 104.799 61.1771 104.467 61.6222C104.141 62.0672 103.66 62.4081 103.026 62.6449C102.396 62.8816 101.626 63 100.717 63H95.348ZM98.1676 60.7344H100.717C101.139 60.7344 101.468 60.6349 101.705 60.4361C101.946 60.2325 102.067 59.9555 102.067 59.6051C102.067 59.2169 101.946 58.9115 101.705 58.6889C101.468 58.4664 101.139 58.3551 100.717 58.3551H98.1676V60.7344ZM98.1676 56.5795H100.064C100.367 56.5795 100.625 56.5369 100.838 56.4517C101.056 56.3617 101.222 56.2339 101.335 56.0682C101.454 55.9025 101.513 55.706 101.513 55.4787C101.513 55.1425 101.378 54.8797 101.108 54.6903C100.838 54.5009 100.469 54.4062 100 54.4062H98.1676V56.5795ZM106.232 63L106.218 60.5994H106.58C106.836 60.5994 107.056 60.5379 107.241 60.4148C107.43 60.2869 107.586 60.081 107.71 59.7969C107.833 59.5128 107.93 59.1364 108.001 58.6676C108.072 58.1941 108.119 57.6117 108.143 56.9205L108.32 52.0909H116.616V63H113.732V54.4702H111.04L110.87 57.8011C110.827 58.715 110.716 59.5009 110.536 60.1591C110.361 60.8172 110.117 61.357 109.805 61.7784C109.492 62.1951 109.116 62.5028 108.675 62.7017C108.235 62.9006 107.724 63 107.141 63H106.232ZM121.852 59.0085L125.779 52.0909H128.762V63H125.879V56.0611L121.966 63H118.961V52.0909H121.852V59.0085ZM131.188 63V52.0909H134.213V56.3239H135.066L138.034 52.0909H141.586L137.729 57.5028L141.628 63H138.034L135.343 59.1293H134.213V63H131.188ZM146.017 63.206C145.321 63.206 144.701 63.0852 144.157 62.8438C143.612 62.5975 143.181 62.2353 142.864 61.7571C142.551 61.2741 142.395 60.6728 142.395 59.9531C142.395 59.3471 142.507 58.8381 142.729 58.4261C142.952 58.0142 143.255 57.6828 143.638 57.4318C144.022 57.1809 144.457 56.9915 144.945 56.8636C145.437 56.7358 145.953 56.6458 146.493 56.5938C147.128 56.5275 147.639 56.4659 148.027 56.4091C148.416 56.3475 148.697 56.2576 148.873 56.1392C149.048 56.0208 149.135 55.8456 149.135 55.6136V55.571C149.135 55.1212 148.993 54.7732 148.709 54.527C148.43 54.2808 148.032 54.1577 147.516 54.1577C146.971 54.1577 146.538 54.2784 146.216 54.5199C145.894 54.7566 145.681 55.0549 145.577 55.4148L142.779 55.1875C142.921 54.5246 143.2 53.9517 143.617 53.4688C144.033 52.9811 144.571 52.607 145.229 52.3466C145.892 52.0814 146.659 51.9489 147.53 51.9489C148.136 51.9489 148.716 52.0199 149.27 52.1619C149.829 52.304 150.324 52.5241 150.755 52.8224C151.19 53.1207 151.533 53.5043 151.784 53.973C152.035 54.437 152.161 54.9934 152.161 55.642V63H149.292V61.4872H149.206C149.031 61.8281 148.797 62.1288 148.503 62.3892C148.21 62.6449 147.857 62.8461 147.445 62.9929C147.033 63.1349 146.557 63.206 146.017 63.206ZM146.884 61.1179C147.329 61.1179 147.722 61.0303 148.063 60.8551C148.404 60.6752 148.671 60.4337 148.865 60.1307C149.06 59.8277 149.157 59.4844 149.157 59.1009V57.9432C149.062 58.0047 148.932 58.0616 148.766 58.1136C148.605 58.161 148.423 58.206 148.219 58.2486C148.016 58.2865 147.812 58.322 147.608 58.3551C147.405 58.3835 147.22 58.4096 147.054 58.4332C146.699 58.4853 146.389 58.5682 146.124 58.6818C145.859 58.7955 145.653 58.9493 145.506 59.1435C145.359 59.3329 145.286 59.5696 145.286 59.8537C145.286 60.2656 145.435 60.5805 145.733 60.7983C146.036 61.0114 146.42 61.1179 146.884 61.1179ZM161.305 55.8267V58.2273H154.672V55.8267H161.305ZM163.94 48.4545H167.733L171.738 58.2273H171.909L175.914 48.4545H179.707V63H176.724V53.5327H176.603L172.839 62.929H170.808L167.044 53.4972H166.923V63H163.94V48.4545Z" fill="#FF8D30"/>
<defs>
<clipPath id="clip0_969_4">
<rect width="18.8136" height="18.6667" fill="white" transform="translate(75.1129 10.667)"/>
</clipPath>
</defs>
</svg>
